<svg xmlns="http://www.w3.org/2000/svg" xmlns:xlink="http://www.w3.org/1999/xlink" preserveAspectRatio="xMidYMid" width="26" height="26" viewBox="0 0 26 26">
  <defs>
    <style>
      .cls-1 {
        fill: #fff;
        fill-rule: evenodd;
      }
    </style>
  </defs>
  <path d="M25.231,23.846 C24.806,23.846 24.461,23.502 24.461,23.077 C24.461,11.200 14.800,1.538 2.923,1.538 C2.498,1.538 2.154,1.193 2.154,0.768 C2.154,0.344 2.498,0.000 2.923,0.000 C15.647,0.000 26.000,10.351 26.000,23.077 C26.000,23.502 25.656,23.846 25.231,23.846 ZM5.846,23.077 C5.846,24.689 4.535,26.000 2.923,26.000 C1.311,26.000 -0.000,24.689 -0.000,23.077 C-0.000,21.465 1.311,20.154 2.923,20.154 C4.534,20.154 5.846,21.465 5.846,23.077 ZM1.539,23.077 C1.539,23.841 2.159,24.463 2.923,24.463 C3.687,24.463 4.308,23.841 4.308,23.077 C4.308,22.313 3.687,21.692 2.923,21.692 C2.159,21.692 1.539,22.314 1.539,23.077 ZM2.154,15.845 C2.154,15.421 2.498,15.076 2.923,15.076 C7.334,15.076 10.923,18.665 10.923,23.077 C10.923,23.502 10.579,23.846 10.153,23.846 C9.729,23.846 9.384,23.502 9.384,23.077 C9.384,19.514 6.486,16.615 2.923,16.615 C2.498,16.615 2.154,16.271 2.154,15.845 ZM2.154,10.461 C2.154,10.037 2.498,9.692 2.923,9.692 C10.303,9.692 16.307,15.696 16.307,23.077 C16.307,23.502 15.964,23.846 15.538,23.846 C15.113,23.846 14.769,23.502 14.769,23.077 C14.769,16.545 9.455,11.230 2.923,11.230 C2.498,11.230 2.154,10.886 2.154,10.461 ZM2.924,6.385 C2.499,6.385 2.155,6.041 2.155,5.615 C2.155,5.190 2.499,4.845 2.924,4.845 C12.977,4.845 21.154,13.025 21.154,23.076 C21.153,23.502 20.809,23.846 20.385,23.846 C19.960,23.846 19.616,23.502 19.616,23.077 C19.616,13.873 12.127,6.385 2.924,6.385 Z" class="cls-1"/>
</svg>
