<svg xmlns="http://www.w3.org/2000/svg" xmlns:xlink="http://www.w3.org/1999/xlink" preserveAspectRatio="xMidYMid" width="25" height="29" viewBox="0 0 25 29">
  <defs>
    <style>
      .cls-1 {
        fill: #fff;
        fill-rule: evenodd;
      }
    </style>
  </defs>
  <path d="M23.091,22.812 C23.057,22.831 23.035,22.865 23.035,22.903 L23.035,26.858 C23.035,28.044 22.059,29.006 20.855,29.006 L18.772,29.006 C17.629,29.006 16.702,28.093 16.702,26.967 L16.702,22.848 C15.505,22.213 14.729,20.968 14.729,19.605 L14.729,16.670 C14.729,14.633 16.404,12.982 18.471,12.982 L21.267,12.982 C23.330,12.982 25.002,14.636 25.008,16.663 L25.008,19.599 C25.008,20.941 24.256,22.169 23.091,22.812 ZM23.541,16.772 C23.541,15.478 22.476,14.428 21.162,14.428 L18.476,14.428 C17.224,14.428 16.209,15.429 16.209,16.663 L16.209,19.605 C16.209,20.525 16.791,21.359 17.665,21.687 C17.941,21.790 18.176,22.088 18.176,22.379 L18.176,26.591 C18.176,27.119 18.611,27.548 19.147,27.548 L20.480,27.548 C21.077,27.548 21.562,27.071 21.562,26.482 L21.562,22.410 C21.562,22.099 21.814,21.783 22.107,21.667 C22.961,21.331 23.529,20.507 23.529,19.599 L23.541,19.599 L23.541,16.772 ZM19.983,12.399 C18.422,12.399 17.152,11.147 17.152,9.608 C17.152,8.070 18.422,6.818 19.983,6.818 C21.543,6.818 22.814,8.070 22.814,9.608 C22.814,11.147 21.543,12.399 19.983,12.399 ZM19.983,8.250 C19.223,8.250 18.605,8.859 18.605,9.608 C18.605,10.357 19.223,10.966 19.983,10.966 C20.743,10.966 21.361,10.357 21.361,9.608 C21.361,8.859 20.743,8.250 19.983,8.250 ZM11.332,19.858 L11.332,26.072 C11.332,27.690 9.997,29.006 8.355,29.006 L4.950,29.006 C3.308,29.006 1.973,27.690 1.973,26.072 L1.973,19.864 C0.776,19.230 -0.000,17.985 -0.000,16.621 L-0.000,11.896 C-0.000,9.862 1.678,8.208 3.741,8.208 L9.564,8.208 C11.627,8.208 13.299,9.862 13.305,11.890 L13.305,16.615 C13.305,17.979 12.529,19.224 11.332,19.858 ZM11.838,11.890 C11.838,10.657 10.821,9.655 9.570,9.655 L3.747,9.655 C2.496,9.655 1.479,10.657 1.479,11.890 L1.479,16.621 C1.479,17.552 2.075,18.394 2.965,18.714 C3.254,18.821 3.446,19.094 3.446,19.396 L3.446,26.066 C3.446,26.884 4.120,27.548 4.950,27.548 L8.355,27.548 C9.185,27.548 9.859,26.884 9.859,26.066 L9.859,19.390 C9.859,19.088 10.051,18.815 10.340,18.708 C11.230,18.388 11.826,17.546 11.826,16.615 L11.838,16.615 L11.838,11.890 ZM6.652,7.432 C4.571,7.432 2.881,5.766 2.881,3.714 C2.881,1.663 4.571,-0.003 6.652,-0.003 C8.734,-0.003 10.424,1.663 10.424,3.714 C10.424,5.766 8.734,7.432 6.652,7.432 ZM6.652,1.449 C5.383,1.449 4.355,2.463 4.355,3.714 C4.355,4.965 5.383,5.979 6.652,5.979 C7.922,5.979 8.950,4.965 8.950,3.714 C8.950,2.463 7.922,1.449 6.652,1.449 Z" class="cls-1"/>
</svg>
