<svg xmlns="http://www.w3.org/2000/svg" xmlns:xlink="http://www.w3.org/1999/xlink" preserveAspectRatio="xMidYMid" width="23" height="23" viewBox="0 0 23 23">
  <defs>
    <style>
      .cls-1 {
        fill: #fff;
        fill-rule: evenodd;
      }
    </style>
  </defs>
  <path d="M22.214,8.019 L20.901,8.019 L20.901,6.538 L18.659,6.538 L18.589,5.717 L20.896,1.262 L22.214,1.262 L22.214,5.485 L22.799,5.485 L22.799,6.538 L22.214,6.538 L22.214,8.019 ZM20.901,3.150 L20.873,3.146 L20.804,3.271 L19.787,5.485 L20.901,5.485 L20.901,3.150 ZM14.000,7.123 L15.842,4.789 C16.087,4.441 16.262,4.139 16.369,3.882 C16.476,3.625 16.529,3.391 16.529,3.180 C16.529,2.892 16.474,2.659 16.362,2.482 C16.251,2.306 16.090,2.217 15.880,2.217 C15.663,2.217 15.496,2.325 15.380,2.539 C15.265,2.753 15.207,3.035 15.207,3.382 L13.921,3.382 L13.912,3.359 C13.899,2.747 14.073,2.227 14.432,1.802 C14.790,1.377 15.273,1.164 15.880,1.164 C16.498,1.164 16.981,1.344 17.328,1.702 C17.674,2.061 17.848,2.550 17.848,3.169 C17.848,3.584 17.751,3.967 17.557,4.320 C17.364,4.673 17.041,5.134 16.589,5.703 L15.707,6.965 L17.991,6.965 L17.991,8.019 L14.000,8.019 L14.000,7.123 ZM16.115,18.109 L10.815,11.744 L10.815,5.224 L12.182,5.224 L12.182,11.249 L17.165,17.234 L16.115,18.109 ZM1.361,11.497 C1.361,17.086 5.909,21.634 11.498,21.634 C17.088,21.634 21.635,17.086 21.635,11.497 L23.002,11.497 C23.002,17.840 17.842,23.001 11.498,23.001 C5.155,23.001 -0.006,17.840 -0.006,11.497 C-0.006,5.153 5.155,-0.008 11.498,-0.008 L11.498,1.360 C5.909,1.360 1.361,5.907 1.361,11.497 Z" class="cls-1"/>
</svg>
