<svg xmlns="http://www.w3.org/2000/svg" xmlns:xlink="http://www.w3.org/1999/xlink" preserveAspectRatio="xMidYMid" width="20" height="22" viewBox="0 0 20 22">
  <defs>
    <style>
      .cls-1 {
        fill: #fff;
        fill-rule: evenodd;
      }
    </style>
  </defs>
  <path d="M0.005,21.997 L0.005,-0.010 L19.997,-0.010 L19.997,21.997 L0.005,21.997 ZM18.677,1.316 L1.325,1.316 L1.325,20.671 L18.677,20.671 L18.677,1.316 ZM10.001,7.204 C13.400,7.204 16.165,9.983 16.165,13.397 C16.165,16.812 13.400,19.591 10.001,19.591 C6.603,19.591 3.837,16.812 3.837,13.397 C3.837,9.983 6.603,7.204 10.001,7.204 ZM10.001,18.265 C12.672,18.265 14.845,16.081 14.845,13.397 C14.845,10.714 12.672,8.530 10.001,8.530 C7.330,8.530 5.157,10.714 5.157,13.397 C5.157,16.081 7.330,18.265 10.001,18.265 ZM7.470,12.013 C7.452,11.923 7.435,11.838 7.422,11.756 C7.378,11.485 7.562,11.230 7.832,11.186 C8.097,11.143 8.357,11.327 8.399,11.598 C8.411,11.668 8.425,11.742 8.440,11.818 C8.527,12.251 8.644,12.844 8.370,13.532 C8.150,14.085 8.148,14.474 8.362,15.070 C8.454,15.329 8.320,15.614 8.063,15.707 C8.008,15.727 7.951,15.736 7.896,15.736 C7.693,15.736 7.503,15.610 7.430,15.407 C7.137,14.588 7.143,13.938 7.451,13.162 C7.616,12.749 7.541,12.375 7.470,12.013 ZM9.761,11.048 C9.736,10.924 9.708,10.793 9.682,10.651 C9.632,10.381 9.809,10.122 10.078,10.072 C10.348,10.020 10.605,10.199 10.655,10.469 C10.680,10.603 10.706,10.728 10.730,10.846 C10.869,11.516 10.989,12.096 10.622,12.941 C10.200,13.913 10.351,14.331 10.580,14.964 L10.619,15.070 C10.711,15.329 10.578,15.614 10.321,15.707 C10.265,15.727 10.208,15.736 10.153,15.736 C9.950,15.736 9.760,15.610 9.687,15.407 L9.650,15.304 C9.397,14.603 9.134,13.879 9.715,12.543 C9.956,11.988 9.887,11.655 9.761,11.048 ZM12.491,12.286 C12.742,12.396 12.856,12.689 12.747,12.941 C12.324,13.913 12.475,14.331 12.705,14.964 L12.744,15.070 C12.836,15.329 12.702,15.614 12.445,15.707 C12.390,15.727 12.333,15.736 12.278,15.736 C12.075,15.736 11.885,15.610 11.812,15.407 L11.774,15.304 C11.521,14.603 11.259,13.879 11.839,12.543 C11.949,12.291 12.242,12.177 12.491,12.286 ZM12.011,4.144 C11.602,4.144 11.271,3.811 11.271,3.400 C11.271,2.990 11.602,2.657 12.011,2.657 C12.420,2.657 12.751,2.990 12.751,3.400 C12.751,3.811 12.420,4.144 12.011,4.144 ZM9.979,4.144 C9.570,4.144 9.239,3.811 9.239,3.400 C9.239,2.990 9.570,2.657 9.979,2.657 C10.388,2.657 10.719,2.990 10.719,3.400 C10.719,3.811 10.388,4.144 9.979,4.144 ZM7.991,4.144 C7.582,4.144 7.251,3.811 7.251,3.400 C7.251,2.990 7.582,2.657 7.991,2.657 C8.400,2.657 8.731,2.990 8.731,3.400 C8.731,3.811 8.400,4.144 7.991,4.144 Z" class="cls-1"/>
</svg>
