<svg xmlns="http://www.w3.org/2000/svg" xmlns:xlink="http://www.w3.org/1999/xlink" preserveAspectRatio="xMidYMid" width="27" height="14" viewBox="0 0 27 14">
  <defs>
    <style>
      .cls-1 {
        fill: #fff;
        fill-rule: evenodd;
      }
    </style>
  </defs>
  <path d="M23.813,11.561 C23.980,11.814 24.082,12.124 24.082,12.460 C24.082,13.311 23.451,14.003 22.675,14.003 L1.417,14.003 C0.641,14.003 0.009,13.311 0.009,12.460 C0.009,11.696 0.520,11.064 1.187,10.943 C1.201,10.917 1.206,10.889 1.223,10.866 C7.422,2.560 18.924,0.136 24.140,0.015 L24.639,0.003 L24.779,0.482 C25.532,3.073 26.884,8.671 26.898,8.727 L26.996,9.137 L23.813,11.561 ZM23.671,1.336 C21.135,1.508 9.536,2.735 2.833,10.917 L19.770,10.917 C20.129,10.917 20.420,11.207 20.420,11.564 C20.420,11.922 20.129,12.212 19.770,12.212 L1.417,12.212 C1.391,12.217 1.308,12.303 1.308,12.460 C1.308,12.617 1.391,12.703 1.418,12.708 L22.675,12.708 C22.700,12.702 22.783,12.616 22.783,12.460 C22.783,12.338 22.736,12.273 22.702,12.241 C22.701,12.241 22.700,12.242 22.699,12.242 C22.654,12.242 22.612,12.221 22.567,12.212 L21.719,12.212 C21.360,12.212 21.069,11.922 21.069,11.564 C21.069,11.207 21.360,10.917 21.719,10.917 L22.518,10.917 L25.535,8.620 C25.233,7.377 24.304,3.595 23.671,1.336 ZM20.501,6.897 L20.501,5.911 L17.578,5.911 L17.578,6.411 L18.985,6.411 C19.254,6.411 19.473,6.629 19.473,6.897 C19.473,7.165 19.254,7.382 18.985,7.382 L14.114,7.382 C13.875,7.382 13.671,7.210 13.633,6.975 C13.530,6.346 13.341,5.261 13.269,5.029 C13.191,4.773 13.335,4.502 13.591,4.423 C16.605,3.496 20.241,2.749 22.140,2.387 C22.390,2.342 22.641,2.496 22.704,2.746 C23.002,3.935 23.682,6.785 23.682,6.785 C23.716,6.929 23.682,7.082 23.590,7.198 C23.498,7.314 23.357,7.382 23.208,7.382 L20.988,7.382 C20.719,7.382 20.501,7.165 20.501,6.897 ZM21.475,5.426 L21.475,6.411 L22.591,6.411 C22.409,5.651 22.091,4.329 21.870,3.428 C20.007,3.792 16.961,4.435 14.311,5.220 C14.385,5.591 14.469,6.071 14.527,6.411 L16.604,6.411 L16.604,5.426 C16.604,5.158 16.822,4.940 17.091,4.940 L20.988,4.940 C21.257,4.940 21.475,5.158 21.475,5.426 Z" class="cls-1"/>
</svg>
