<svg xmlns="http://www.w3.org/2000/svg" xmlns:xlink="http://www.w3.org/1999/xlink" preserveAspectRatio="xMidYMid" width="25" height="25" viewBox="0 0 25 25">
  <defs>
    <style>
      .cls-1 {
        fill: #fff;
        fill-rule: evenodd;
      }
    </style>
  </defs>
  <path d="M24.322,15.202 L23.688,15.202 L23.688,21.216 C23.688,23.303 22.019,25.000 19.968,25.000 L5.024,25.000 C2.973,25.000 1.304,23.303 1.304,21.216 L1.304,15.202 L0.671,15.202 C0.294,15.202 -0.010,14.891 -0.010,14.509 C-0.010,14.127 0.294,13.817 0.671,13.817 L1.304,13.817 L23.688,13.817 L24.322,13.817 C24.698,13.817 25.002,14.127 25.002,14.509 C25.002,14.891 24.698,15.202 24.322,15.202 ZM22.327,15.202 L2.665,15.202 L2.665,21.216 C2.665,22.539 3.723,23.615 5.024,23.615 L19.968,23.615 C21.268,23.615 22.327,22.539 22.327,21.216 L22.327,15.202 ZM19.611,11.207 C18.585,11.207 17.750,12.056 17.750,13.100 L16.729,13.100 C16.729,12.056 15.894,11.207 14.868,11.207 C13.842,11.207 13.007,12.056 13.007,13.100 L11.986,13.100 C11.986,12.056 11.150,11.207 10.124,11.207 C9.098,11.207 8.262,12.056 8.262,13.100 L7.241,13.100 C7.241,12.056 6.407,11.207 5.380,11.207 C4.354,11.207 3.519,12.056 3.519,13.100 L2.498,13.100 C2.498,11.558 3.679,10.303 5.167,10.190 L4.870,10.190 C4.870,8.573 6.163,7.257 7.752,7.257 C8.735,7.257 9.604,7.763 10.124,8.530 C10.645,7.763 11.513,7.257 12.496,7.257 C13.480,7.257 14.348,7.763 14.868,8.530 C15.388,7.763 16.257,7.257 17.240,7.257 C18.829,7.257 20.122,8.573 20.122,10.190 L19.825,10.190 C21.313,10.303 22.494,11.558 22.494,13.100 L21.473,13.100 C21.473,12.056 20.638,11.207 19.611,11.207 ZM9.614,10.190 C9.614,9.146 8.778,8.296 7.752,8.296 C6.726,8.296 5.891,9.146 5.891,10.190 L5.594,10.190 C6.487,10.258 7.270,10.730 7.752,11.440 C8.234,10.730 9.017,10.258 9.910,10.190 L9.614,10.190 ZM14.357,10.190 C14.357,9.146 13.522,8.296 12.496,8.296 C11.470,8.296 10.635,9.146 10.635,10.190 L10.338,10.190 C11.231,10.258 12.014,10.730 12.496,11.440 C12.978,10.730 13.761,10.258 14.654,10.190 L14.357,10.190 ZM19.101,10.190 C19.101,9.146 18.266,8.296 17.240,8.296 C16.214,8.296 15.378,9.146 15.378,10.190 L15.081,10.190 C15.975,10.258 16.758,10.730 17.240,11.440 C17.721,10.730 18.504,10.258 19.398,10.190 L19.101,10.190 ZM21.663,9.728 C21.259,9.728 20.931,9.395 20.931,8.983 C20.931,8.572 21.259,8.238 21.663,8.238 C22.068,8.238 22.396,8.572 22.396,8.983 C22.396,9.395 22.068,9.728 21.663,9.728 ZM16.854,5.076 C15.477,5.076 14.357,3.937 14.357,2.536 C14.357,1.136 15.477,-0.004 16.854,-0.004 C18.230,-0.004 19.350,1.136 19.350,2.536 C19.350,3.937 18.230,5.076 16.854,5.076 ZM16.854,1.035 C16.040,1.035 15.378,1.708 15.378,2.536 C15.378,3.364 16.040,4.037 16.854,4.037 C17.667,4.037 18.329,3.364 18.329,2.536 C18.329,1.708 17.667,1.035 16.854,1.035 ZM13.446,6.275 C13.101,6.275 12.821,5.990 12.821,5.638 C12.821,5.287 13.101,5.002 13.446,5.002 C13.792,5.002 14.072,5.287 14.072,5.638 C14.072,5.990 13.792,6.275 13.446,6.275 ZM8.341,6.317 C7.376,6.317 6.592,5.518 6.592,4.537 C6.592,3.556 7.376,2.758 8.341,2.758 C9.305,2.758 10.090,3.556 10.090,4.537 C10.090,5.518 9.305,6.317 8.341,6.317 ZM8.341,3.797 C7.939,3.797 7.613,4.129 7.613,4.537 C7.613,4.946 7.939,5.278 8.341,5.278 C8.742,5.278 9.069,4.946 9.069,4.537 C9.069,4.129 8.742,3.797 8.341,3.797 ZM3.253,9.413 C2.884,9.413 2.586,9.109 2.586,8.735 C2.586,8.360 2.884,8.056 3.253,8.056 C3.621,8.056 3.920,8.360 3.920,8.735 C3.920,9.109 3.621,9.413 3.253,9.413 Z" class="cls-1"/>
</svg>
