<svg xmlns="http://www.w3.org/2000/svg" xmlns:xlink="http://www.w3.org/1999/xlink" preserveAspectRatio="xMidYMid" width="20" height="22" viewBox="0 0 20 22">
  <defs>
    <style>
      .cls-1 {
        fill: #fff;
        fill-rule: evenodd;
      }
    </style>
  </defs>
  <path d="M0.010,21.992 L0.010,0.005 L20.002,0.005 L20.002,21.992 L0.010,21.992 ZM18.682,1.330 L1.330,1.330 L1.330,20.667 L18.682,20.667 L18.682,1.330 ZM10.006,7.213 C13.405,7.213 16.170,9.989 16.170,13.400 C16.170,16.812 13.405,19.587 10.006,19.587 C6.608,19.587 3.842,16.812 3.842,13.400 C3.842,9.989 6.608,7.213 10.006,7.213 ZM10.006,18.263 C11.909,18.263 13.554,17.153 14.346,15.547 C14.105,15.634 13.849,15.690 13.578,15.690 C12.851,15.690 12.210,15.340 11.792,14.807 C11.374,15.340 10.733,15.690 10.006,15.690 C9.279,15.690 8.638,15.340 8.220,14.807 C7.802,15.340 7.161,15.690 6.434,15.690 C6.163,15.690 5.907,15.634 5.667,15.547 C6.458,17.153 8.103,18.263 10.006,18.263 ZM5.177,13.688 C5.308,14.264 5.820,14.696 6.434,14.696 C7.146,14.696 7.725,14.115 7.725,13.400 L8.715,13.400 C8.715,14.115 9.294,14.696 10.006,14.696 C10.718,14.696 11.297,14.115 11.297,13.400 L12.287,13.400 C12.287,14.115 12.866,14.696 13.578,14.696 C14.192,14.696 14.704,14.264 14.835,13.688 C14.841,13.592 14.850,13.497 14.850,13.400 C14.850,10.719 12.677,8.538 10.006,8.538 C7.335,8.538 5.162,10.719 5.162,13.400 C5.162,13.497 5.171,13.592 5.177,13.688 ZM12.016,4.156 C11.607,4.156 11.276,3.823 11.276,3.413 C11.276,3.002 11.607,2.670 12.016,2.670 C12.425,2.670 12.756,3.002 12.756,3.413 C12.756,3.823 12.425,4.156 12.016,4.156 ZM9.984,4.156 C9.575,4.156 9.244,3.823 9.244,3.413 C9.244,3.002 9.575,2.670 9.984,2.670 C10.393,2.670 10.724,3.002 10.724,3.413 C10.724,3.823 10.393,4.156 9.984,4.156 ZM7.996,4.156 C7.587,4.156 7.256,3.823 7.256,3.413 C7.256,3.002 7.587,2.670 7.996,2.670 C8.405,2.670 8.736,3.002 8.736,3.413 C8.736,3.823 8.405,4.156 7.996,4.156 Z" class="cls-1"/>
</svg>
