<svg xmlns="http://www.w3.org/2000/svg" xmlns:xlink="http://www.w3.org/1999/xlink" preserveAspectRatio="xMidYMid" width="26" height="18" viewBox="0 0 26 18">
  <defs>
    <style>
      .cls-1 {
        fill: #fff;
        fill-rule: evenodd;
      }
    </style>
  </defs>
  <path d="M23.719,13.575 L23.719,2.641 C23.719,1.184 22.497,-0.003 20.995,-0.003 L4.997,-0.003 C3.495,-0.003 2.273,1.184 2.273,2.641 L2.273,13.575 L-0.009,13.575 L-0.009,15.752 C-0.009,16.989 1.027,17.995 2.301,17.995 L23.691,17.995 C24.965,17.995 26.001,16.989 26.001,15.752 L26.001,13.575 L23.719,13.575 ZM3.491,2.641 C3.491,1.835 4.166,1.180 4.997,1.180 L20.995,1.180 C21.825,1.180 22.501,1.835 22.501,2.641 L22.501,13.575 L3.491,13.575 L3.491,2.641 ZM24.783,15.752 C24.783,16.337 24.293,16.813 23.691,16.813 L2.301,16.813 C1.699,16.813 1.209,16.337 1.209,15.752 L1.209,14.758 L2.273,14.758 L8.413,14.758 L8.413,14.900 C8.413,15.486 8.903,15.961 9.506,15.961 L16.486,15.961 C17.089,15.961 17.579,15.486 17.579,14.900 L17.579,14.758 L23.719,14.758 L24.783,14.758 L24.783,15.752 Z" class="cls-1"/>
</svg>
