<svg xmlns="http://www.w3.org/2000/svg" xmlns:xlink="http://www.w3.org/1999/xlink" preserveAspectRatio="xMidYMid" width="16.969" height="17" viewBox="0 0 16.969 17">
  <defs>
    <style>
      .cls-1 {
        fill: #fff;
        fill-rule: evenodd;
      }
    </style>
  </defs>
  <path d="M16.790,2.282 C16.181,1.584 14.834,1.289 13.379,1.195 C13.163,0.508 12.512,0.008 11.722,0.008 C10.911,0.008 10.253,0.529 10.051,1.244 C9.310,1.300 8.346,1.414 8.325,1.414 L0.584,2.678 C0.017,2.789 -0.154,3.323 0.079,3.722 L3.045,8.482 C3.334,8.870 3.898,8.936 4.200,8.516 L8.767,2.792 C9.261,2.730 9.773,2.681 10.278,2.646 C10.455,2.903 10.706,3.112 10.995,3.243 L10.995,4.698 L9.874,4.698 C8.356,4.698 7.089,5.961 7.089,7.475 L7.089,16.275 C7.089,16.670 7.413,16.997 7.813,16.997 L15.624,16.997 C16.021,16.997 16.309,16.674 16.309,16.275 L16.309,7.475 C16.309,5.961 15.042,4.698 13.525,4.698 L12.439,4.698 L12.439,3.247 C12.752,3.108 13.017,2.882 13.198,2.594 C14.433,2.657 15.391,2.844 15.697,3.184 C16.000,3.434 16.341,3.466 16.717,3.292 C17.005,3.039 17.040,2.570 16.790,2.282 ZM3.730,6.861 L1.851,3.868 L6.731,3.073 L3.730,6.861 ZM13.528,6.104 C14.287,6.104 14.903,6.718 14.903,7.475 L14.903,15.587 L8.537,15.587 L8.537,7.475 C8.537,6.718 9.153,6.104 9.912,6.104 L13.528,6.104 Z" class="cls-1"/>
</svg>
