<svg xmlns="http://www.w3.org/2000/svg" xmlns:xlink="http://www.w3.org/1999/xlink" preserveAspectRatio="xMidYMid" width="26" height="18" viewBox="0 0 26 18">
  <defs>
    <style>
      .cls-1 {
        fill: #fff;
        fill-rule: evenodd;
      }
    </style>
  </defs>
  <path d="M24.625,11.131 C24.512,10.966 24.363,10.835 24.200,10.725 L16.136,10.725 L14.262,9.762 L22.377,9.762 L12.996,4.942 L3.616,9.762 L11.732,9.762 L9.858,10.725 L1.803,10.725 C1.679,10.816 1.563,10.919 1.469,11.043 L0.991,11.679 L0.008,10.892 L0.486,10.256 C0.743,9.914 1.077,9.632 1.452,9.440 L12.697,3.661 L12.697,2.874 C12.062,2.776 11.571,2.171 11.571,1.443 C11.571,0.647 12.158,-0.001 12.879,-0.001 L13.401,-0.001 C14.122,-0.001 14.709,0.647 14.709,1.443 L14.709,1.844 L14.086,1.844 L14.086,1.443 C14.086,1.001 13.779,0.641 13.401,0.641 L12.879,0.641 C12.501,0.641 12.193,1.001 12.193,1.443 C12.193,1.886 12.501,2.245 12.879,2.245 L13.319,2.245 L13.319,3.673 L24.603,9.471 C25.015,9.683 25.375,10.001 25.641,10.390 L26.001,10.915 L24.985,11.656 L24.625,11.131 ZM1.452,15.762 L12.697,9.983 L12.697,9.195 C12.062,9.097 11.571,8.493 11.571,7.765 C11.571,6.968 12.158,6.320 12.879,6.320 L13.401,6.320 C14.122,6.320 14.709,6.968 14.709,7.765 L14.709,8.166 L14.086,8.166 L14.086,7.765 C14.086,7.322 13.779,6.962 13.401,6.962 L12.879,6.962 C12.501,6.962 12.193,7.322 12.193,7.765 C12.193,8.207 12.501,8.567 12.879,8.567 L13.319,8.567 L13.319,9.995 L24.603,15.793 C25.015,16.005 25.375,16.322 25.641,16.712 L26.001,17.236 L24.985,17.978 L24.625,17.453 C24.512,17.288 24.363,17.157 24.200,17.047 L1.803,17.047 C1.679,17.138 1.563,17.241 1.469,17.365 L0.991,18.001 L0.008,17.214 L0.486,16.578 C0.743,16.236 1.077,15.954 1.452,15.762 ZM22.377,16.084 L12.996,11.263 L3.616,16.084 L22.377,16.084 Z" class="cls-1"/>
</svg>
