<svg xmlns="http://www.w3.org/2000/svg" xmlns:xlink="http://www.w3.org/1999/xlink" preserveAspectRatio="xMidYMid" width="24" height="16" viewBox="0 0 24 16">
  <defs>
    <style>
      .cls-1 {
        fill: #fff;
        fill-rule: evenodd;
      }
    </style>
  </defs>
  <path d="M12.584,14.187 L12.584,14.851 L17.064,14.851 C17.388,14.851 17.651,15.108 17.651,15.424 C17.651,15.741 17.388,15.997 17.064,15.997 L6.931,15.997 C6.607,15.997 6.344,15.741 6.344,15.424 C6.344,15.108 6.607,14.851 6.931,14.851 L11.410,14.851 L11.410,14.187 L-0.001,14.187 L-0.001,0.000 L23.996,0.000 L23.996,14.187 L12.584,14.187 ZM22.822,1.146 L1.172,1.146 L1.172,13.041 L22.822,13.041 L22.822,1.146 ZM6.842,4.515 L10.664,4.515 C10.988,4.515 11.251,4.772 11.251,5.088 C11.251,5.405 10.988,5.662 10.664,5.662 L9.340,5.662 L9.340,9.100 C9.340,9.416 9.077,9.673 8.753,9.673 C8.429,9.673 8.166,9.416 8.166,9.100 L8.166,5.662 L6.842,5.662 C6.517,5.662 6.255,5.405 6.255,5.088 C6.255,4.772 6.517,4.515 6.842,4.515 ZM13.043,4.808 L14.842,7.931 L16.642,4.808 C16.800,4.532 17.157,4.433 17.441,4.589 C17.724,4.744 17.824,5.094 17.664,5.369 L15.354,9.381 C15.250,9.561 15.054,9.673 14.842,9.673 C14.630,9.673 14.435,9.561 14.331,9.381 L12.020,5.369 C11.861,5.094 11.961,4.744 12.244,4.589 C12.527,4.433 12.883,4.532 13.043,4.808 Z" class="cls-1"/>
</svg>
