<svg xmlns="http://www.w3.org/2000/svg" xmlns:xlink="http://www.w3.org/1999/xlink" preserveAspectRatio="xMidYMid" width="19" height="19" viewBox="0 0 19 19">
  <defs>
    <style>
      .cls-1 {
        fill: #fff;
        fill-rule: evenodd;
      }
    </style>
  </defs>
  <path d="M-0.005,18.995 L-0.005,-0.000 L19.007,-0.000 L19.007,18.995 L-0.005,18.995 ZM17.947,1.059 L1.056,1.059 L1.056,17.936 L17.947,17.936 L17.947,1.059 ZM5.271,1.604 C7.117,1.604 8.619,3.104 8.619,4.948 C8.619,6.793 7.117,8.293 5.271,8.293 C3.426,8.293 1.924,6.793 1.924,4.948 C1.924,3.104 3.426,1.604 5.271,1.604 ZM5.271,7.233 C6.532,7.233 7.558,6.208 7.558,4.948 C7.558,3.688 6.532,2.663 5.271,2.663 C4.010,2.663 2.985,3.688 2.985,4.948 C2.985,6.208 4.010,7.233 5.271,7.233 ZM5.271,9.806 C6.459,9.806 7.426,10.772 7.426,11.959 C7.426,13.146 6.459,14.111 5.271,14.111 C4.083,14.111 3.117,13.146 3.117,11.959 C3.117,10.772 4.083,9.806 5.271,9.806 ZM5.271,13.052 C5.875,13.052 6.365,12.561 6.365,11.959 C6.365,11.356 5.875,10.866 5.271,10.866 C4.668,10.866 4.178,11.356 4.178,11.959 C4.178,12.561 4.668,13.052 5.271,13.052 ZM6.252,15.629 C6.659,15.629 6.989,15.959 6.989,16.366 C6.989,16.773 6.659,17.103 6.252,17.103 C5.844,17.103 5.514,16.773 5.514,16.366 C5.514,15.959 5.844,15.629 6.252,15.629 ZM8.418,15.629 C8.825,15.629 9.156,15.959 9.156,16.366 C9.156,16.773 8.825,17.103 8.418,17.103 C8.011,17.103 7.680,16.773 7.680,16.366 C7.680,15.959 8.011,15.629 8.418,15.629 ZM10.584,15.629 C10.992,15.629 11.322,15.959 11.322,16.366 C11.322,16.773 10.992,17.103 10.584,17.103 C10.177,17.103 9.847,16.773 9.847,16.366 C9.847,15.959 10.177,15.629 10.584,15.629 ZM13.731,9.210 C15.248,9.210 16.482,10.443 16.482,11.959 C16.482,13.474 15.248,14.707 13.731,14.707 C12.214,14.707 10.980,13.474 10.980,11.959 C10.980,10.443 12.214,9.210 13.731,9.210 ZM13.731,13.648 C14.663,13.648 15.421,12.890 15.421,11.959 C15.421,11.027 14.663,10.270 13.731,10.270 C12.799,10.270 12.041,11.027 12.041,11.959 C12.041,12.890 12.799,13.648 13.731,13.648 ZM12.751,15.629 C13.158,15.629 13.489,15.959 13.489,16.366 C13.489,16.773 13.158,17.103 12.751,17.103 C12.344,17.103 12.013,16.773 12.013,16.366 C12.013,15.959 12.344,15.629 12.751,15.629 ZM13.731,8.293 C11.885,8.293 10.384,6.793 10.384,4.948 C10.384,3.104 11.885,1.604 13.731,1.604 C15.577,1.604 17.078,3.104 17.078,4.948 C17.078,6.793 15.577,8.293 13.731,8.293 ZM13.731,2.663 C12.470,2.663 11.444,3.688 11.444,4.948 C11.444,6.208 12.470,7.233 13.731,7.233 C14.992,7.233 16.018,6.208 16.018,4.948 C16.018,3.688 14.992,2.663 13.731,2.663 Z" class="cls-1"/>
</svg>
