<svg xmlns="http://www.w3.org/2000/svg" xmlns:xlink="http://www.w3.org/1999/xlink" preserveAspectRatio="xMidYMid" width="24.031" height="19" viewBox="0 0 24.031 19">
  <defs>
    <style>
      .cls-1 {
        fill: #fff;
        fill-rule: evenodd;
      }
    </style>
  </defs>
  <path d="M23.211,12.717 L21.350,13.953 C21.039,16.806 17.045,18.996 12.028,18.996 C7.012,18.996 3.018,16.806 2.706,13.953 L0.845,12.717 C0.185,12.278 -0.121,11.474 0.082,10.715 L1.316,6.089 C1.517,5.334 2.036,4.696 2.741,4.340 L10.761,0.292 C11.543,-0.103 12.515,-0.103 13.296,0.292 L21.315,4.340 C22.019,4.696 22.539,5.333 22.741,6.089 L23.975,10.716 C24.177,11.475 23.870,12.279 23.211,12.717 ZM12.028,17.809 C16.222,17.809 19.804,16.055 20.136,13.915 C18.928,13.609 15.680,12.882 12.028,12.882 C8.372,12.882 5.127,13.609 3.921,13.915 C4.253,16.055 7.836,17.809 12.028,17.809 ZM21.581,6.392 C21.466,5.962 21.170,5.600 20.769,5.398 L12.749,1.349 C12.527,1.237 12.278,1.177 12.028,1.177 C11.779,1.177 11.529,1.237 11.306,1.349 L3.287,5.397 C2.886,5.600 2.591,5.962 2.476,6.392 L1.242,11.018 C1.170,11.289 1.279,11.575 1.514,11.732 L3.556,13.088 C4.685,12.791 8.086,11.991 12.028,11.991 C15.971,11.991 19.372,12.791 20.500,13.088 L22.542,11.732 C22.777,11.576 22.887,11.289 22.815,11.018 L21.581,6.392 ZM12.158,10.000 C12.117,10.017 12.072,10.025 12.028,10.025 C11.984,10.025 11.940,10.017 11.898,10.000 C9.709,9.133 9.357,7.220 8.949,5.006 C8.930,4.907 8.956,4.806 9.020,4.728 C9.083,4.649 9.178,4.602 9.279,4.599 C10.295,4.562 11.465,4.013 11.759,3.661 C11.892,3.502 12.165,3.502 12.298,3.661 C12.591,4.013 13.762,4.562 14.777,4.599 C14.878,4.602 14.973,4.649 15.036,4.728 C15.100,4.806 15.126,4.907 15.108,5.006 C14.700,7.220 14.347,9.133 12.158,10.000 ZM12.028,4.351 C11.514,4.746 10.592,5.135 9.706,5.254 C10.097,7.308 10.490,8.633 12.028,9.305 C13.567,8.633 13.960,7.308 14.351,5.254 C13.465,5.135 12.543,4.746 12.028,4.351 Z" class="cls-1"/>
</svg>
