<svg xmlns="http://www.w3.org/2000/svg" xmlns:xlink="http://www.w3.org/1999/xlink" preserveAspectRatio="xMidYMid" width="19" height="15" viewBox="0 0 19 15">
  <defs>
    <style>
      .cls-1 {
        fill: #fff;
        fill-rule: evenodd;
      }
    </style>
  </defs>
  <path d="M-0.003,14.996 L-0.003,-0.003 L19.004,-0.003 L19.004,14.996 L-0.003,14.996 ZM17.823,1.177 L1.178,1.177 L1.178,13.815 L17.823,13.815 L17.823,1.177 ZM4.857,3.770 C6.572,3.707 8.549,2.769 9.045,2.168 C9.270,1.896 9.731,1.896 9.956,2.168 C10.452,2.769 12.428,3.707 14.144,3.770 C14.315,3.776 14.474,3.857 14.582,3.990 C14.689,4.124 14.733,4.297 14.702,4.466 C14.013,8.248 13.417,11.514 9.720,12.997 C9.650,13.025 9.575,13.039 9.500,13.039 C9.426,13.039 9.351,13.025 9.281,12.997 C5.583,11.514 4.988,8.248 4.298,4.466 C4.267,4.297 4.312,4.124 4.419,3.990 C4.526,3.857 4.686,3.776 4.857,3.770 ZM9.500,11.808 C12.099,10.661 12.763,8.397 13.423,4.890 C11.927,4.686 10.370,4.022 9.500,3.348 C8.631,4.022 7.074,4.686 5.577,4.890 C6.238,8.397 6.901,10.661 9.500,11.808 ZM11.527,5.859 C11.669,5.967 11.696,6.169 11.588,6.311 L9.584,8.939 C9.531,9.010 9.450,9.055 9.362,9.064 C9.351,9.065 9.339,9.066 9.328,9.066 C9.251,9.066 9.177,9.039 9.118,8.989 L7.953,7.992 C7.817,7.876 7.801,7.673 7.917,7.537 C8.033,7.402 8.236,7.386 8.372,7.502 L9.278,8.277 L11.075,5.920 C11.183,5.779 11.385,5.751 11.527,5.859 Z" class="cls-1"/>
</svg>
