<svg xmlns="http://www.w3.org/2000/svg" xmlns:xlink="http://www.w3.org/1999/xlink" preserveAspectRatio="xMidYMid" width="12" height="14" viewBox="0 0 12 14">
  <defs>
    <style>
      .cls-1 {
        fill: #fff;
        fill-rule: evenodd;
      }
    </style>
  </defs>
  <path d="M8.200,3.676 C7.996,3.459 7.752,3.289 7.495,3.142 L7.495,2.092 L6.609,2.092 L6.609,1.240 L7.701,1.240 L7.701,-0.008 L4.282,-0.008 L2.767,0.540 L3.239,1.706 L4.526,1.240 L5.290,1.240 L5.290,2.092 L4.404,2.092 L4.404,3.123 C4.148,3.264 3.904,3.428 3.698,3.636 C2.008,5.348 -0.008,8.010 -0.008,10.964 C-0.008,12.635 1.428,13.995 3.194,13.995 L8.801,13.995 C10.521,13.995 11.957,12.700 12.001,11.108 C12.076,8.384 9.975,5.563 8.200,3.676 ZM8.801,12.747 L3.194,12.747 C2.155,12.747 1.310,11.947 1.310,10.964 C1.310,8.417 3.133,6.037 4.662,4.489 C4.996,4.151 5.449,3.964 5.937,3.964 C6.432,3.964 6.886,4.157 7.214,4.506 C8.539,5.913 10.751,8.637 10.682,11.075 C10.657,11.997 9.813,12.747 8.801,12.747 Z" class="cls-1"/>
</svg>
