<svg xmlns="http://www.w3.org/2000/svg" xmlns:xlink="http://www.w3.org/1999/xlink" preserveAspectRatio="xMidYMid" width="18" height="17" viewBox="0 0 18 17">
  <defs>
    <style>
      .cls-1 {
        fill: #fff;
        fill-rule: evenodd;
      }
    </style>
  </defs>
  <path d="M13.962,10.223 C11.737,10.223 9.925,8.394 9.925,6.146 C9.925,3.898 11.737,2.069 13.962,2.069 C16.188,2.069 18.000,3.898 18.000,6.146 C18.000,8.394 16.188,10.223 13.962,10.223 ZM13.962,3.076 C12.287,3.076 10.923,4.453 10.923,6.146 C10.923,7.838 12.287,9.215 13.962,9.215 C15.638,9.215 17.002,7.838 17.002,6.146 C17.002,4.453 15.638,3.076 13.962,3.076 ZM13.962,8.637 C12.602,8.637 11.496,7.519 11.496,6.146 C11.496,5.868 11.719,5.642 11.995,5.642 C12.271,5.642 12.494,5.868 12.494,6.146 C12.494,6.964 13.153,7.629 13.962,7.629 C14.238,7.629 14.461,7.854 14.461,8.133 C14.461,8.411 14.238,8.637 13.962,8.637 ZM5.207,16.993 C2.335,16.993 -0.002,14.633 -0.002,11.732 C-0.002,8.831 2.335,6.470 5.207,6.470 C8.080,6.470 10.417,8.831 10.417,11.732 C10.417,14.633 8.080,16.993 5.207,16.993 ZM5.207,7.478 C2.885,7.478 0.995,9.386 0.995,11.732 C0.995,14.077 2.885,15.986 5.207,15.986 C7.530,15.986 9.420,14.077 9.420,11.732 C9.420,9.386 7.530,7.478 5.207,7.478 ZM8.297,12.236 C8.022,12.236 7.798,12.010 7.798,11.732 C7.798,10.289 6.636,9.115 5.207,9.115 C4.932,9.115 4.709,8.889 4.709,8.611 C4.709,8.333 4.932,8.107 5.207,8.107 C7.186,8.107 8.796,9.733 8.796,11.732 C8.796,12.010 8.573,12.236 8.297,12.236 ZM5.223,5.066 C3.840,5.066 2.715,3.930 2.715,2.534 C2.715,1.137 3.840,0.001 5.223,0.001 C6.605,0.001 7.730,1.137 7.730,2.534 C7.730,3.930 6.605,5.066 5.223,5.066 ZM5.223,1.009 C4.391,1.009 3.713,1.693 3.713,2.534 C3.713,3.374 4.391,4.058 5.223,4.058 C6.055,4.058 6.732,3.374 6.732,2.534 C6.732,1.693 6.055,1.009 5.223,1.009 Z" class="cls-1"/>
</svg>
