<svg xmlns="http://www.w3.org/2000/svg" xmlns:xlink="http://www.w3.org/1999/xlink" preserveAspectRatio="xMidYMid" width="23" height="17" viewBox="0 0 23 17">
  <defs>
    <style>
      .cls-1 {
        fill: #fff;
        fill-rule: evenodd;
      }
    </style>
  </defs>
  <path d="M22.676,1.400 C22.110,1.516 21.441,1.945 21.231,2.100 C20.882,2.395 19.974,2.723 18.992,2.900 C18.259,3.031 18.076,3.185 17.631,3.554 L17.456,3.700 C17.376,3.765 17.279,3.797 17.183,3.797 C17.061,3.797 16.939,3.745 16.855,3.645 C16.704,3.466 16.729,3.200 16.910,3.052 L17.080,2.911 C17.563,2.509 17.882,2.243 18.839,2.071 C19.815,1.896 20.514,1.598 20.697,1.444 C20.755,1.400 21.636,0.753 22.503,0.576 C22.735,0.530 22.960,0.675 23.007,0.903 C23.055,1.131 22.907,1.353 22.676,1.400 ZM18.460,1.555 C17.728,1.687 17.544,1.840 17.099,2.210 L16.925,2.355 C16.845,2.420 16.748,2.452 16.652,2.452 C16.529,2.452 16.408,2.400 16.323,2.300 C16.172,2.121 16.197,1.856 16.379,1.707 L16.548,1.567 C17.031,1.164 17.350,0.899 18.306,0.726 C19.282,0.551 19.981,0.253 20.166,0.099 C20.344,-0.052 20.615,-0.032 20.768,0.146 C20.921,0.323 20.899,0.589 20.720,0.739 C20.349,1.050 19.441,1.378 18.460,1.555 ZM8.219,11.909 C8.652,12.337 9.382,12.917 10.634,13.663 C11.034,13.902 11.277,14.294 11.318,14.766 C11.371,15.374 11.068,16.073 10.564,16.504 C10.193,16.822 9.674,16.997 9.103,16.997 C8.605,16.997 8.122,16.864 7.741,16.622 C6.705,15.963 5.223,14.859 4.106,12.882 C2.413,12.562 0.988,11.427 0.342,9.794 C-0.169,8.500 -0.110,7.042 0.504,5.792 C1.119,4.543 2.244,3.593 3.591,3.188 L3.651,3.174 L14.913,1.058 L17.066,6.503 L8.219,11.909 ZM8.358,15.679 C8.761,15.934 9.503,15.926 9.818,15.656 C10.048,15.459 10.206,15.117 10.184,14.862 C10.171,14.718 10.106,14.661 10.044,14.624 C8.765,13.862 7.820,13.152 7.224,12.510 C7.074,12.580 6.922,12.640 6.767,12.694 C6.726,12.709 6.684,12.720 6.642,12.733 C6.519,12.773 6.396,12.809 6.271,12.839 C6.212,12.853 6.152,12.865 6.092,12.877 C5.981,12.900 5.869,12.918 5.756,12.933 C5.694,12.942 5.632,12.950 5.570,12.956 C5.540,12.959 5.511,12.965 5.481,12.967 C6.393,14.318 7.475,15.118 8.358,15.679 ZM14.196,2.335 L3.896,4.271 C2.848,4.594 2.008,5.307 1.529,6.282 C1.045,7.266 1.001,8.368 1.403,9.387 C1.922,10.698 3.086,11.604 4.462,11.813 L4.491,11.817 C4.596,11.832 4.704,11.834 4.811,11.841 C4.909,11.847 5.007,11.860 5.104,11.859 C5.124,11.859 5.144,11.856 5.165,11.856 C5.315,11.853 5.464,11.840 5.612,11.820 C5.663,11.813 5.712,11.804 5.762,11.795 C5.885,11.774 6.007,11.746 6.128,11.713 C6.176,11.699 6.224,11.688 6.271,11.673 C6.433,11.621 6.593,11.562 6.750,11.490 L15.661,6.041 L14.196,2.335 ZM17.599,4.221 C18.081,3.818 18.400,3.553 19.356,3.381 C20.333,3.205 21.031,2.908 21.215,2.753 C21.394,2.602 21.663,2.623 21.817,2.800 C21.970,2.977 21.949,3.242 21.770,3.394 C21.400,3.705 20.492,4.032 19.510,4.209 C18.778,4.341 18.593,4.494 18.150,4.864 L17.974,5.009 C17.894,5.075 17.797,5.106 17.701,5.106 C17.579,5.106 17.457,5.055 17.372,4.954 C17.222,4.776 17.247,4.510 17.428,4.361 L17.599,4.221 Z" class="cls-1"/>
</svg>
