<svg xmlns="http://www.w3.org/2000/svg" xmlns:xlink="http://www.w3.org/1999/xlink" preserveAspectRatio="xMidYMid" width="43.937" height="44" viewBox="0 0 43.937 44">
  <defs>
    <style>
      .cls-1 {
        fill: #fff;
        fill-rule: evenodd;
      }
    </style>
  </defs>
  <path d="M41.699,31.071 L40.829,31.071 C39.665,34.192 37.299,36.927 34.096,38.854 L34.518,41.396 C34.626,42.045 34.445,42.705 34.021,43.207 C33.596,43.709 32.976,43.997 32.320,43.997 L30.844,43.997 C29.750,43.997 28.825,43.212 28.645,42.131 L28.479,41.131 C26.853,41.520 25.178,41.716 23.488,41.716 C21.796,41.716 20.120,41.520 18.496,41.133 L18.330,42.131 C18.150,43.212 17.226,43.997 16.131,43.997 L14.656,43.997 C13.999,43.997 13.379,43.709 12.955,43.207 C12.530,42.705 12.349,42.045 12.457,41.396 L12.878,38.864 C8.336,36.135 5.564,31.826 5.340,27.168 C4.449,26.936 3.314,26.310 2.319,25.341 C1.699,25.943 1.211,26.320 1.154,26.363 C0.842,26.602 0.396,26.541 0.158,26.228 C-0.081,25.915 -0.021,25.468 0.292,25.229 C0.298,25.224 0.780,24.853 1.385,24.261 C0.578,23.141 0.012,21.736 0.012,20.093 C0.012,18.652 1.182,17.479 2.620,17.479 C4.059,17.479 5.229,18.652 5.229,20.093 C5.229,21.632 4.279,23.147 3.296,24.302 C3.310,24.316 3.324,24.329 3.338,24.343 C4.043,25.020 4.794,25.456 5.355,25.675 C5.609,21.932 7.482,18.450 10.694,15.791 C11.286,15.301 11.913,14.849 12.568,14.437 C10.869,12.871 9.877,10.641 9.877,8.308 C9.877,3.722 13.600,-0.009 18.176,-0.009 C22.752,-0.009 26.476,3.722 26.476,8.308 C26.476,9.412 26.253,10.511 25.831,11.524 C27.200,11.673 28.544,11.953 29.851,12.362 C31.080,10.345 33.242,9.116 35.629,9.116 C36.022,9.116 36.340,9.435 36.340,9.828 L36.340,15.859 C38.422,17.601 39.963,19.724 40.829,22.042 L41.699,22.042 C42.928,22.042 43.928,23.044 43.928,24.275 L43.928,28.837 C43.928,30.069 42.929,31.071 41.699,31.071 ZM3.806,20.093 C3.806,19.438 3.274,18.905 2.620,18.905 C1.967,18.905 1.435,19.438 1.435,20.093 C1.435,21.359 1.849,22.390 2.373,23.188 C3.312,22.041 3.806,20.977 3.806,20.093 ZM18.176,1.417 C14.384,1.417 11.299,4.508 11.299,8.308 C11.299,10.395 12.258,12.382 13.877,13.685 C14.714,13.247 15.591,12.870 16.499,12.555 C15.262,12.132 14.429,11.251 14.429,10.209 C14.429,9.815 14.748,9.496 15.141,9.496 C15.534,9.496 15.852,9.815 15.852,10.209 C15.852,10.664 16.507,11.163 17.465,11.335 L17.465,8.975 C15.715,8.749 14.429,7.702 14.429,6.407 C14.429,5.111 15.715,4.065 17.465,3.839 L17.465,3.746 C17.465,3.352 17.783,3.033 18.176,3.033 C18.569,3.033 18.887,3.352 18.887,3.746 L18.887,3.839 C20.637,4.065 21.923,5.111 21.923,6.407 C21.923,6.801 21.604,7.120 21.211,7.120 C20.819,7.120 20.500,6.801 20.500,6.407 C20.500,5.952 19.845,5.453 18.887,5.281 L18.887,7.641 C20.637,7.866 21.923,8.913 21.923,10.209 C21.923,10.678 21.753,11.114 21.455,11.491 C22.126,11.429 22.804,11.397 23.488,11.397 C23.765,11.397 24.041,11.402 24.316,11.413 C24.805,10.445 25.053,9.401 25.053,8.308 C25.053,4.508 21.968,1.417 18.176,1.417 ZM17.465,7.533 L17.465,5.281 C16.507,5.453 15.852,5.952 15.852,6.407 C15.852,6.862 16.507,7.361 17.465,7.533 ZM18.887,9.083 L18.887,11.335 C19.845,11.163 20.500,10.664 20.500,10.209 C20.500,9.753 19.845,9.255 18.887,9.083 ZM42.506,24.275 C42.506,23.830 42.144,23.467 41.699,23.467 L40.326,23.467 C40.018,23.467 39.746,23.270 39.650,22.978 C38.879,20.634 37.335,18.481 35.184,16.752 C35.016,16.617 34.917,16.412 34.917,16.196 L34.917,10.588 C33.160,10.820 31.632,11.907 30.827,13.540 C30.668,13.861 30.296,14.015 29.957,13.898 C27.889,13.184 25.712,12.822 23.488,12.822 C14.257,12.822 6.746,18.983 6.746,26.556 C6.746,31.073 9.462,35.304 14.010,37.874 C14.271,38.022 14.412,38.317 14.363,38.613 L13.861,41.631 C13.821,41.869 13.885,42.102 14.041,42.286 C14.196,42.470 14.415,42.571 14.656,42.571 L16.132,42.571 C16.527,42.571 16.862,42.287 16.927,41.896 L17.221,40.131 C17.254,39.932 17.370,39.756 17.540,39.647 C17.710,39.539 17.918,39.507 18.113,39.562 C19.849,40.045 21.658,40.290 23.488,40.290 C25.315,40.290 27.124,40.045 28.862,39.560 C28.925,39.543 28.989,39.534 29.053,39.534 C29.187,39.534 29.320,39.572 29.435,39.646 C29.605,39.754 29.721,39.930 29.755,40.130 L30.049,41.896 C30.114,42.288 30.448,42.571 30.844,42.571 L32.320,42.571 C32.561,42.571 32.779,42.470 32.935,42.286 C33.090,42.101 33.154,41.869 33.115,41.631 L32.611,38.603 C32.562,38.307 32.703,38.013 32.963,37.865 C36.247,36.007 38.622,33.262 39.650,30.135 C39.746,29.843 40.018,29.645 40.325,29.645 L41.699,29.645 C42.144,29.645 42.506,29.283 42.506,28.837 L42.506,24.275 ZM34.870,24.228 C34.477,24.228 34.159,23.909 34.159,23.515 L34.159,21.994 C34.159,21.600 34.477,21.281 34.870,21.281 C35.263,21.281 35.581,21.600 35.581,21.994 L35.581,23.515 C35.581,23.909 35.263,24.228 34.870,24.228 Z" class="cls-1"/>
</svg>
