<svg xmlns="http://www.w3.org/2000/svg" xmlns:xlink="http://www.w3.org/1999/xlink" preserveAspectRatio="xMidYMid" width="11" height="15" viewBox="0 0 11 15">
  <defs>
    <style>
      .cls-1 {
        fill: #333;
        fill-rule: evenodd;
      }
    </style>
  </defs>
  <path d="M10.411,14.993 L10.411,11.249 L9.464,11.258 L9.464,10.811 L11.003,10.653 L11.003,14.993 L10.411,14.993 ZM9.622,7.756 C8.718,8.573 7.453,8.981 5.826,8.981 L2.057,8.981 L2.057,14.993 L-0.006,14.993 L-0.006,0.004 L5.826,0.004 C7.453,0.004 8.718,0.415 9.622,1.239 C10.526,2.063 10.978,3.147 10.978,4.492 C10.978,5.851 10.526,6.939 9.622,7.756 ZM8.135,2.433 C7.622,1.877 6.853,1.599 5.826,1.599 L2.057,1.599 L2.057,7.396 L5.826,7.396 C6.859,7.396 7.631,7.123 8.141,6.577 C8.650,6.031 8.905,5.343 8.905,4.513 C8.905,3.682 8.648,2.989 8.135,2.433 Z" class="cls-1"/>
</svg>
