<svg xmlns="http://www.w3.org/2000/svg" xmlns:xlink="http://www.w3.org/1999/xlink" preserveAspectRatio="xMidYMid" width="24" height="22" viewBox="0 0 24 22">
  <defs>
    <style>
      .cls-1 {
        fill: #fff;
        fill-rule: evenodd;
      }
    </style>
  </defs>
  <path d="M-0.004,22.004 L-0.004,4.651 L6.716,4.651 L6.716,0.005 L17.292,0.005 L17.292,4.651 L24.012,4.651 L24.012,22.004 L-0.004,22.004 ZM15.783,1.498 L8.225,1.498 L8.225,4.651 L15.783,4.651 L15.783,1.498 ZM22.502,6.144 L17.292,6.144 L6.716,6.144 L1.505,6.144 L1.505,20.511 L22.502,20.511 L22.502,6.144 ZM12.004,7.535 C15.233,7.535 17.859,10.133 17.859,13.327 C17.859,16.522 15.233,19.120 12.004,19.120 C8.776,19.120 6.149,16.522 6.149,13.327 C6.149,10.133 8.776,7.535 12.004,7.535 ZM12.004,17.627 C14.401,17.627 16.350,15.698 16.350,13.327 C16.350,10.957 14.401,9.028 12.004,9.028 C9.608,9.028 7.659,10.957 7.659,13.327 C7.659,15.698 9.608,17.627 12.004,17.627 ZM11.290,11.285 L12.799,11.285 L12.799,12.581 L14.109,12.581 L14.109,14.074 L12.799,14.074 L12.799,15.370 L11.290,15.370 L11.290,14.074 L9.980,14.074 L9.980,12.581 L11.290,12.581 L11.290,11.285 Z" class="cls-1"/>
</svg>
