<svg xmlns="http://www.w3.org/2000/svg" xmlns:xlink="http://www.w3.org/1999/xlink" preserveAspectRatio="xMidYMid" width="23" height="22" viewBox="0 0 23 22">
  <defs>
    <style>
      .cls-1 {
        fill: #fff;
        fill-rule: evenodd;
      }
    </style>
  </defs>
  <path d="M21.583,5.298 L20.151,4.542 C20.949,3.156 21.371,1.582 21.371,-0.010 L23.006,-0.010 C23.006,1.845 22.513,3.681 21.583,5.298 ZM17.694,3.229 C18.250,2.250 18.544,1.139 18.544,0.018 L20.179,0.018 C20.179,1.399 19.816,2.768 19.131,3.975 L17.694,3.229 ZM11.502,5.885 C8.121,5.885 5.371,3.253 5.371,0.018 L7.006,0.018 C7.006,2.390 9.024,4.320 11.502,4.320 C13.982,4.320 15.999,2.390 15.999,0.018 L17.634,0.018 C17.634,3.253 14.883,5.885 11.502,5.885 ZM2.832,0.018 L4.467,0.018 C4.467,1.141 4.761,2.251 5.316,3.229 L3.879,3.976 C3.194,2.769 2.832,1.401 2.832,0.018 ZM1.427,5.298 C0.496,3.682 0.005,1.846 0.005,-0.010 L1.639,-0.010 C1.639,1.583 2.061,3.157 2.859,4.542 L1.427,5.298 ZM4.195,12.411 C4.785,12.479 5.351,12.655 5.851,12.915 C6.015,11.886 6.447,10.948 7.119,10.208 C7.836,9.417 9.187,8.471 11.551,8.458 C11.565,8.458 11.580,8.458 11.596,8.458 C13.128,8.458 14.397,8.925 15.366,9.847 C16.306,10.741 16.816,11.950 17.033,13.055 C17.628,12.846 18.250,12.786 18.863,12.889 C19.904,13.063 20.812,13.686 21.420,14.644 C21.989,15.541 22.088,16.674 21.690,17.755 C21.312,18.786 20.533,19.616 19.658,19.920 C19.566,19.952 19.471,19.967 19.379,19.967 C19.045,19.967 18.731,19.770 18.611,19.452 C18.456,19.046 18.675,18.597 19.099,18.449 C19.513,18.305 19.934,17.818 20.148,17.236 C20.382,16.599 20.337,15.951 20.023,15.456 C19.663,14.890 19.151,14.525 18.581,14.430 C18.014,14.333 17.400,14.513 16.856,14.933 C16.613,15.122 16.274,15.160 15.991,15.030 C15.707,14.900 15.525,14.626 15.525,14.324 C15.525,13.346 15.181,11.877 14.213,10.956 C13.562,10.336 12.680,10.022 11.594,10.022 C11.583,10.022 11.572,10.022 11.560,10.022 C10.154,10.030 9.075,10.438 8.353,11.233 C7.615,12.048 7.281,13.289 7.461,14.554 C7.513,14.922 7.287,15.276 6.920,15.398 C6.552,15.520 6.147,15.378 5.948,15.058 C5.596,14.489 4.831,14.059 4.000,13.964 C3.341,13.890 2.755,14.039 2.408,14.379 C1.423,15.344 1.820,16.682 2.416,17.324 C2.716,17.647 2.686,18.142 2.348,18.429 C2.011,18.716 1.494,18.686 1.195,18.363 C-0.009,17.067 -0.322,14.814 1.239,13.286 C1.943,12.595 3.024,12.277 4.195,12.411 ZM6.755,17.816 C7.207,17.816 7.572,18.166 7.572,18.598 L7.572,21.214 C7.572,21.646 7.207,21.997 6.755,21.997 C6.303,21.997 5.937,21.646 5.937,21.214 L5.937,18.598 C5.937,18.166 6.303,17.816 6.755,17.816 ZM11.054,15.697 C11.506,15.697 11.872,16.047 11.872,16.479 L11.872,21.214 C11.872,21.646 11.506,21.997 11.054,21.997 C10.602,21.997 10.237,21.646 10.237,21.214 L10.237,16.479 C10.237,16.047 10.602,15.697 11.054,15.697 ZM15.714,17.816 C16.166,17.816 16.531,18.166 16.531,18.598 L16.531,21.214 C16.531,21.646 16.166,21.997 15.714,21.997 C15.262,21.997 14.896,21.646 14.896,21.214 L14.896,18.598 C14.896,18.166 15.262,17.816 15.714,17.816 Z" class="cls-1"/>
</svg>
