<svg xmlns="http://www.w3.org/2000/svg" xmlns:xlink="http://www.w3.org/1999/xlink" preserveAspectRatio="xMidYMid" width="27" height="20" viewBox="0 0 27 20">
  <defs>
    <style>
      .cls-1 {
        fill: #fff;
        fill-rule: evenodd;
      }
    </style>
  </defs>
  <path d="M0.000,20.005 L0.000,0.001 L27.000,0.001 L27.000,20.005 L0.000,20.005 ZM25.682,1.308 L1.318,1.308 L1.318,18.698 L25.682,18.698 L25.682,1.308 ZM9.419,6.902 L2.527,6.902 L2.527,2.187 L9.419,2.187 L9.419,6.902 ZM8.102,3.494 L3.844,3.494 L3.844,5.595 L8.102,5.595 L8.102,3.494 ZM5.973,12.250 C7.202,12.250 8.201,13.242 8.201,14.461 C8.201,15.681 7.202,16.673 5.973,16.673 C4.744,16.673 3.744,15.681 3.744,14.461 C3.744,13.242 4.744,12.250 5.973,12.250 ZM5.973,15.365 C6.475,15.365 6.884,14.960 6.884,14.461 C6.884,13.963 6.475,13.557 5.973,13.557 C5.471,13.557 5.062,13.963 5.062,14.461 C5.062,14.960 5.471,15.365 5.973,15.365 ZM13.700,5.779 L10.499,5.779 L10.499,2.602 L13.700,2.602 L13.700,5.779 ZM12.383,3.909 L11.816,3.909 L11.816,4.471 L12.383,4.471 L12.383,3.909 ZM13.700,9.517 L10.499,9.517 L10.499,6.340 L13.700,6.340 L13.700,9.517 ZM12.383,7.648 L11.816,7.648 L11.816,8.210 L12.383,8.210 L12.383,7.648 ZM13.700,13.256 L10.499,13.256 L10.499,10.079 L13.700,10.079 L13.700,13.256 ZM12.383,11.386 L11.816,11.386 L11.816,11.948 L12.383,11.948 L12.383,11.386 ZM13.700,17.051 L10.499,17.051 L10.499,13.874 L13.700,13.874 L13.700,17.051 ZM12.383,15.181 L11.816,15.181 L11.816,15.743 L12.383,15.743 L12.383,15.181 ZM18.923,5.779 L15.722,5.779 L15.722,2.602 L18.923,2.602 L18.923,5.779 ZM17.605,3.909 L17.039,3.909 L17.039,4.471 L17.605,4.471 L17.605,3.909 ZM18.923,9.517 L15.722,9.517 L15.722,6.340 L18.923,6.340 L18.923,9.517 ZM17.605,7.648 L17.039,7.648 L17.039,8.210 L17.605,8.210 L17.605,7.648 ZM18.923,13.256 L15.722,13.256 L15.722,10.079 L18.923,10.079 L18.923,13.256 ZM17.605,11.386 L17.039,11.386 L17.039,11.948 L17.605,11.948 L17.605,11.386 ZM18.923,17.051 L15.722,17.051 L15.722,13.874 L18.923,13.874 L18.923,17.051 ZM17.605,15.181 L17.039,15.181 L17.039,15.743 L17.605,15.743 L17.605,15.181 ZM24.146,5.779 L20.945,5.779 L20.945,2.602 L24.146,2.602 L24.146,5.779 ZM22.828,3.909 L22.262,3.909 L22.262,4.471 L22.828,4.471 L22.828,3.909 ZM24.146,9.517 L20.945,9.517 L20.945,6.340 L24.146,6.340 L24.146,9.517 ZM22.828,7.648 L22.262,7.648 L22.262,8.210 L22.828,8.210 L22.828,7.648 ZM24.146,13.256 L20.945,13.256 L20.945,10.079 L24.146,10.079 L24.146,13.256 ZM22.828,11.386 L22.262,11.386 L22.262,11.948 L22.828,11.948 L22.828,11.386 ZM24.146,17.051 L20.945,17.051 L20.945,13.874 L24.146,13.874 L24.146,17.051 ZM22.828,15.181 L22.262,15.181 L22.262,15.743 L22.828,15.743 L22.828,15.181 Z" class="cls-1"/>
</svg>
