<svg xmlns="http://www.w3.org/2000/svg" xmlns:xlink="http://www.w3.org/1999/xlink" preserveAspectRatio="xMidYMid" width="25" height="25" viewBox="0 0 25 25">
  <defs>
    <style>
      .cls-1 {
        fill: #fff;
        fill-rule: evenodd;
      }
    </style>
  </defs>
  <path d="M12.509,-0.012 C5.618,-0.012 0.011,5.600 0.011,12.499 C0.011,19.397 5.618,25.010 12.509,25.010 C19.400,25.010 25.008,19.397 25.008,12.499 C25.008,5.600 19.400,-0.012 12.509,-0.012 ZM21.034,19.294 C20.481,18.970 19.681,18.599 18.548,18.283 C19.009,16.903 19.326,15.257 19.394,13.294 L23.378,13.294 C23.214,15.553 22.367,17.622 21.034,19.294 ZM11.715,2.091 L11.715,6.128 C10.541,6.084 9.497,5.948 8.581,5.763 C9.552,3.789 10.824,2.671 11.715,2.091 ZM11.715,7.719 L11.715,11.703 L7.228,11.703 C7.295,9.954 7.567,8.483 7.970,7.266 C9.047,7.499 10.297,7.670 11.715,7.719 ZM11.715,13.294 L11.715,17.591 C10.338,17.638 9.121,17.801 8.065,18.024 C7.609,16.751 7.300,15.183 7.228,13.294 L11.715,13.294 ZM11.715,19.182 L11.715,22.906 C10.867,22.354 9.677,21.314 8.727,19.516 C9.606,19.346 10.604,19.223 11.715,19.182 ZM13.304,22.907 L13.304,19.178 C14.467,19.210 15.472,19.305 16.330,19.442 C15.373,21.287 14.161,22.348 13.304,22.907 ZM13.304,17.588 L13.304,13.294 L17.790,13.294 C17.720,15.136 17.426,16.676 16.989,17.931 C15.962,17.748 14.735,17.624 13.304,17.588 ZM13.304,11.703 L13.304,7.721 C14.778,7.685 16.031,7.552 17.077,7.361 C17.464,8.559 17.725,9.998 17.790,11.703 L13.304,11.703 ZM13.304,6.131 L13.304,2.091 C14.207,2.680 15.503,3.817 16.479,5.846 C15.590,5.995 14.533,6.098 13.304,6.131 ZM15.779,2.081 C17.431,2.602 18.912,3.509 20.122,4.692 C19.677,4.938 19.014,5.232 18.076,5.494 C17.413,4.005 16.585,2.896 15.779,2.081 ZM6.999,5.369 C6.154,5.113 5.482,4.837 4.993,4.604 C6.186,3.465 7.629,2.588 9.239,2.081 C8.456,2.873 7.652,3.943 6.999,5.369 ZM6.420,6.862 C5.985,8.211 5.690,9.811 5.624,11.703 L1.640,11.703 C1.800,9.501 2.612,7.483 3.887,5.834 C4.443,6.127 5.291,6.512 6.420,6.862 ZM5.624,13.294 C5.694,15.322 6.030,17.012 6.516,18.419 C5.451,18.742 4.625,19.099 4.055,19.388 C2.680,17.701 1.807,15.595 1.640,13.294 L5.624,13.294 ZM7.127,19.903 C7.755,21.194 8.506,22.176 9.239,22.916 C7.729,22.440 6.368,21.636 5.220,20.600 C5.709,20.379 6.349,20.131 7.127,19.903 ZM17.951,19.779 C18.811,20.009 19.450,20.270 19.907,20.501 C18.737,21.586 17.337,22.425 15.779,22.916 C16.535,22.152 17.311,21.131 17.951,19.779 ZM19.394,11.703 C19.331,9.875 19.053,8.319 18.642,6.999 C19.836,6.657 20.657,6.255 21.196,5.919 C22.433,7.553 23.221,9.539 23.378,11.703 L19.394,11.703 Z" class="cls-1"/>
</svg>
