<svg xmlns="http://www.w3.org/2000/svg" xmlns:xlink="http://www.w3.org/1999/xlink" preserveAspectRatio="xMidYMid" width="26" height="20" viewBox="0 0 26 20">
  <defs>
    <style>
      .cls-1 {
        fill: #fff;
        fill-rule: evenodd;
      }
    </style>
  </defs>
  <path d="M23.394,11.714 L2.599,11.714 C1.167,11.714 0.002,10.551 0.002,9.121 L0.002,2.588 C0.002,1.157 1.167,-0.006 2.599,-0.006 L23.394,-0.006 C24.826,-0.006 25.991,1.157 25.991,2.588 L25.991,9.121 C25.991,10.551 24.826,11.714 23.394,11.714 ZM24.647,2.588 C24.647,1.898 24.085,1.336 23.394,1.336 L2.599,1.336 C1.908,1.336 1.346,1.898 1.346,2.588 L1.346,9.121 C1.346,9.811 1.908,10.372 2.599,10.372 L23.394,10.372 C24.085,10.372 24.647,9.811 24.647,9.121 L24.647,2.588 ZM22.406,7.196 L3.587,7.196 C3.215,7.196 2.915,6.895 2.915,6.524 C2.915,6.154 3.215,5.853 3.587,5.853 L22.406,5.853 C22.778,5.853 23.079,6.154 23.079,6.524 C23.079,6.895 22.778,7.196 22.406,7.196 ZM4.819,7.979 L21.174,7.979 C21.545,7.979 21.846,8.279 21.846,8.650 C21.846,9.021 21.545,9.321 21.174,9.321 L4.819,9.321 C4.447,9.321 4.147,9.021 4.147,8.650 C4.147,8.279 4.447,7.979 4.819,7.979 ZM4.824,16.370 C5.102,16.370 5.328,16.596 5.328,16.874 L5.328,17.797 C5.328,18.460 5.868,19.000 6.533,19.000 C7.197,19.000 7.737,18.460 7.737,17.797 L7.737,14.244 C7.737,13.966 7.963,13.741 8.241,13.741 C8.520,13.741 8.745,13.966 8.745,14.244 L8.745,17.797 C8.745,19.015 7.753,20.007 6.533,20.007 C5.313,20.007 4.320,19.015 4.320,17.797 L4.320,16.874 C4.320,16.596 4.546,16.370 4.824,16.370 ZM11.316,13.741 C11.595,13.741 11.820,13.966 11.820,14.244 L11.820,18.216 C11.820,18.494 11.595,18.720 11.316,18.720 C11.038,18.720 10.812,18.494 10.812,18.216 L10.812,14.244 C10.812,13.966 11.038,13.741 11.316,13.741 ZM14.677,13.741 C14.955,13.741 15.181,13.966 15.181,14.244 L15.181,18.216 C15.181,18.494 14.955,18.720 14.677,18.720 C14.399,18.720 14.173,18.494 14.173,18.216 L14.173,14.244 C14.173,13.966 14.399,13.741 14.677,13.741 ZM17.752,13.741 C18.030,13.741 18.256,13.966 18.256,14.244 L18.256,17.797 C18.256,18.460 18.796,19.000 19.460,19.000 C20.124,19.000 20.664,18.460 20.664,17.797 L20.664,16.874 C20.664,16.596 20.890,16.370 21.169,16.370 C21.447,16.370 21.673,16.596 21.673,16.874 L21.673,17.797 C21.673,19.015 20.680,20.007 19.460,20.007 C18.240,20.007 17.248,19.015 17.248,17.797 L17.248,14.244 C17.248,13.966 17.474,13.741 17.752,13.741 Z" class="cls-1"/>
</svg>
