<svg xmlns="http://www.w3.org/2000/svg" xmlns:xlink="http://www.w3.org/1999/xlink" preserveAspectRatio="xMidYMid" width="30" height="23" viewBox="0 0 30 23">
  <defs>
    <style>
      .cls-1 {
        fill: #fff;
        fill-rule: evenodd;
      }
    </style>
  </defs>
  <path d="M19.029,3.665 C19.029,2.451 20.009,1.464 21.213,1.464 L23.941,1.464 C24.338,1.464 24.662,1.138 24.662,0.737 C24.662,0.330 24.989,0.000 25.393,0.000 C25.797,0.000 26.125,0.330 26.125,0.737 C26.125,1.951 25.145,2.939 23.941,2.939 L21.213,2.939 C20.816,2.939 20.492,3.264 20.492,3.665 C20.492,4.066 20.816,4.392 21.213,4.392 L27.815,4.392 C29.020,4.392 30.000,5.379 30.000,6.593 C30.000,7.807 29.020,8.794 27.815,8.794 L22.726,8.794 C22.328,8.794 22.005,9.120 22.005,9.521 L22.005,10.985 C22.005,11.392 21.677,11.722 21.273,11.722 C20.869,11.722 20.541,11.392 20.541,10.985 L20.541,9.521 C20.541,8.307 21.521,7.319 22.726,7.319 L27.815,7.319 C28.213,7.319 28.536,6.993 28.536,6.593 C28.536,6.192 28.213,5.866 27.815,5.866 L21.213,5.866 C20.009,5.866 19.029,4.879 19.029,3.665 ZM29.860,22.262 C29.860,22.669 29.533,23.000 29.129,23.000 L27.451,23.000 C27.445,23.000 27.438,23.000 27.432,23.000 C27.425,23.000 27.419,23.000 27.413,23.000 L2.531,23.000 C2.518,23.000 2.505,23.000 2.492,23.000 L0.732,23.000 C0.328,23.000 -0.000,22.669 -0.000,22.262 C-0.000,21.855 0.328,21.525 0.732,21.525 L1.780,21.525 L1.780,19.247 C1.780,16.035 3.029,13.007 5.298,10.721 C7.256,8.748 9.762,7.540 12.460,7.246 L12.460,6.119 C12.460,4.723 13.587,3.588 14.972,3.588 C16.357,3.588 17.484,4.723 17.484,6.119 L17.484,7.247 C17.939,7.297 18.391,7.373 18.836,7.475 C19.230,7.566 19.477,7.961 19.387,8.358 C19.297,8.755 18.905,9.004 18.511,8.913 C17.750,8.739 16.967,8.650 16.184,8.650 L13.760,8.650 C7.961,8.650 3.243,13.404 3.243,19.247 L3.243,21.525 L26.700,21.525 L26.700,19.247 C26.700,16.359 25.556,13.655 23.478,11.632 C23.187,11.349 23.179,10.883 23.460,10.590 C23.740,10.297 24.204,10.289 24.494,10.571 C26.860,12.874 28.164,15.956 28.164,19.247 L28.164,21.525 L29.128,21.525 C29.533,21.525 29.860,21.855 29.860,22.262 ZM13.924,7.175 L16.020,7.175 L16.020,6.119 C16.020,5.536 15.550,5.062 14.972,5.062 C14.394,5.062 13.924,5.536 13.924,6.119 L13.924,7.175 L13.924,7.175 ZM4.629,19.126 C4.601,19.532 4.905,19.884 5.309,19.913 C5.326,19.914 5.343,19.914 5.360,19.914 C5.741,19.914 6.062,19.617 6.089,19.228 C6.388,14.890 9.875,11.492 14.028,11.492 C14.432,11.492 14.759,11.162 14.759,10.754 C14.759,10.347 14.432,10.017 14.028,10.017 C9.109,10.017 4.981,14.018 4.629,19.126 Z" class="cls-1"/>
</svg>
