<svg xmlns="http://www.w3.org/2000/svg" xmlns:xlink="http://www.w3.org/1999/xlink" preserveAspectRatio="xMidYMid" width="31" height="21" viewBox="0 0 31 21">
  <defs>
    <style>
      .cls-1 {
        fill: #fff;
        fill-rule: evenodd;
      }
    </style>
  </defs>
  <path d="M24.381,20.999 C22.465,20.999 20.526,19.599 20.526,16.924 L20.526,3.650 C20.526,2.098 19.356,1.404 18.196,1.404 C17.036,1.404 15.866,2.098 15.866,3.650 L15.866,16.924 C15.866,19.578 14.017,20.966 12.189,20.966 C10.363,20.966 8.513,19.578 8.513,16.924 L8.513,3.650 C8.513,2.121 7.431,1.436 6.359,1.436 C5.287,1.436 4.206,2.121 4.206,3.650 L4.206,10.988 L-0.007,10.988 L-0.007,9.586 L2.802,9.586 L2.802,3.650 C2.802,1.276 4.591,0.034 6.359,0.034 C8.127,0.034 9.917,1.276 9.917,3.650 L9.917,16.924 C9.917,18.748 11.059,19.564 12.189,19.564 C13.321,19.564 14.462,18.748 14.462,16.924 L14.462,3.650 C14.462,1.254 16.340,0.001 18.196,0.001 C20.052,0.001 21.930,1.254 21.930,3.650 L21.930,16.924 C21.930,18.760 23.200,19.597 24.381,19.597 C25.577,19.597 26.785,18.770 26.785,16.924 L26.785,9.586 L30.998,9.586 L30.998,10.988 L28.189,10.988 L28.189,16.924 C28.189,19.599 26.273,20.999 24.381,20.999 Z" class="cls-1"/>
</svg>
