<svg xmlns="http://www.w3.org/2000/svg" xmlns:xlink="http://www.w3.org/1999/xlink" preserveAspectRatio="xMidYMid" width="26" height="26" viewBox="0 0 26 26">
  <defs>
    <style>
      .cls-1 {
        fill: #545454;
        fill-rule: evenodd;
      }
    </style>
  </defs>
  <path d="M20.271,26.000 C19.154,26.000 18.114,25.674 17.232,25.119 L0.441,25.119 C0.197,25.119 -0.000,24.922 -0.000,24.678 L-0.000,6.610 L-0.000,2.203 C-0.000,1.960 0.197,1.763 0.441,1.763 L2.644,1.763 L2.644,0.441 C2.644,0.197 2.841,-0.000 3.085,-0.000 L6.169,-0.000 C6.413,-0.000 6.610,0.197 6.610,0.441 L6.610,1.763 L16.305,1.763 L16.305,0.441 C16.305,0.197 16.502,-0.000 16.746,-0.000 L19.830,-0.000 C20.074,-0.000 20.271,0.197 20.271,0.441 L20.271,1.763 L22.475,1.763 C22.718,1.763 22.915,1.960 22.915,2.203 L22.915,6.610 L22.915,15.194 C24.746,16.151 26.000,18.066 26.000,20.271 C26.000,23.430 23.430,26.000 20.271,26.000 ZM5.729,2.203 L5.729,0.881 L3.525,0.881 L3.525,2.203 L3.525,3.525 L5.729,3.525 L5.729,2.203 ZM19.390,2.203 L19.390,0.881 L17.186,0.881 L17.186,2.203 L17.186,3.525 L19.390,3.525 L19.390,2.203 ZM22.034,2.644 L20.271,2.644 L20.271,3.966 C20.271,4.210 20.074,4.407 19.830,4.407 L16.746,4.407 C16.502,4.407 16.305,4.210 16.305,3.966 L16.305,2.644 L6.610,2.644 L6.610,3.966 C6.610,4.210 6.413,4.407 6.169,4.407 L3.085,4.407 C2.841,4.407 2.644,4.210 2.644,3.966 L2.644,2.644 L0.881,2.644 L0.881,6.169 L22.034,6.169 L22.034,2.644 ZM22.034,7.051 L0.881,7.051 L0.881,24.237 L0.881,24.238 L16.138,24.238 C16.066,24.162 16.001,24.081 15.932,24.002 C15.900,23.964 15.865,23.927 15.834,23.889 C15.748,23.784 15.668,23.675 15.591,23.564 C15.563,23.525 15.533,23.487 15.507,23.447 C15.433,23.337 15.367,23.225 15.302,23.110 C15.275,23.064 15.246,23.018 15.221,22.971 C15.163,22.863 15.112,22.751 15.061,22.639 C15.035,22.582 15.006,22.526 14.982,22.467 C14.938,22.363 14.901,22.256 14.864,22.148 C14.851,22.110 14.835,22.073 14.823,22.034 L11.898,22.034 L11.017,22.034 L7.932,22.034 L7.051,22.034 L3.085,22.034 L3.085,18.068 L3.085,17.186 L3.085,14.102 L3.085,13.220 L3.085,9.254 L7.051,9.254 L7.932,9.254 L11.017,9.254 L11.898,9.254 L14.983,9.254 L15.864,9.254 L19.830,9.254 L19.830,13.220 L19.830,14.102 L19.830,14.565 C19.976,14.553 20.122,14.542 20.271,14.542 C20.447,14.542 20.622,14.553 20.795,14.568 C20.856,14.574 20.916,14.582 20.977,14.590 C21.085,14.604 21.193,14.620 21.301,14.640 C21.376,14.653 21.451,14.668 21.526,14.685 C21.608,14.704 21.690,14.726 21.771,14.748 C21.859,14.772 21.947,14.795 22.034,14.823 L22.034,7.051 ZM11.898,14.102 L11.898,17.186 L14.983,17.186 L14.983,14.102 L11.898,14.102 ZM14.983,13.220 L14.983,10.136 L11.898,10.136 L11.898,13.220 L14.983,13.220 ZM11.898,18.068 L11.898,21.153 L14.614,21.153 C14.609,21.119 14.607,21.086 14.602,21.053 L14.602,21.053 C14.593,20.982 14.578,20.913 14.571,20.841 C14.568,20.812 14.568,20.782 14.566,20.752 C14.551,20.591 14.542,20.430 14.542,20.271 C14.542,20.078 14.552,19.886 14.571,19.696 C14.580,19.611 14.597,19.529 14.609,19.446 C14.624,19.343 14.635,19.239 14.656,19.137 C14.682,19.006 14.719,18.878 14.754,18.750 C14.768,18.699 14.778,18.647 14.793,18.596 C14.845,18.428 14.905,18.264 14.972,18.103 C14.976,18.092 14.979,18.081 14.983,18.071 L14.983,18.068 L11.898,18.068 ZM7.932,14.102 L7.932,17.186 L11.017,17.186 L11.017,14.102 L7.932,14.102 ZM11.017,13.220 L11.017,10.136 L7.932,10.136 L7.932,13.220 L11.017,13.220 ZM7.932,18.068 L7.932,21.153 L11.017,21.153 L11.017,18.068 L7.932,18.068 ZM3.966,14.102 L3.966,17.186 L7.051,17.186 L7.051,14.102 L3.966,14.102 ZM7.051,13.220 L7.051,10.136 L3.966,10.136 L3.966,13.220 L7.051,13.220 ZM3.966,18.068 L3.966,21.153 L7.051,21.153 L7.051,18.068 L3.966,18.068 ZM18.949,14.102 L15.864,14.102 L15.864,16.615 C15.895,16.578 15.930,16.544 15.962,16.508 C16.037,16.422 16.112,16.336 16.192,16.255 C16.241,16.205 16.293,16.159 16.344,16.111 C16.417,16.042 16.491,15.973 16.568,15.908 C16.625,15.859 16.684,15.813 16.743,15.767 C16.817,15.709 16.891,15.653 16.967,15.599 C17.034,15.552 17.101,15.506 17.171,15.461 C17.239,15.417 17.309,15.375 17.379,15.334 C17.459,15.287 17.539,15.240 17.622,15.196 C17.669,15.172 17.717,15.150 17.765,15.128 C18.132,14.948 18.521,14.806 18.927,14.708 C18.934,14.706 18.941,14.704 18.949,14.702 L18.949,14.102 ZM18.949,13.220 L18.949,10.136 L15.864,10.136 L15.864,13.220 L18.949,13.220 ZM22.274,15.862 C22.125,15.795 21.976,15.735 21.824,15.683 C21.813,15.680 21.804,15.676 21.794,15.672 C21.645,15.622 21.495,15.582 21.343,15.547 C21.326,15.543 21.309,15.538 21.292,15.534 C21.149,15.503 21.005,15.481 20.861,15.463 C20.834,15.460 20.809,15.454 20.782,15.451 C20.613,15.433 20.443,15.424 20.271,15.424 C19.998,15.424 19.733,15.452 19.473,15.496 L19.463,15.497 C18.755,15.616 18.094,15.888 17.519,16.286 C17.501,16.299 17.483,16.313 17.464,16.327 C17.348,16.410 17.234,16.498 17.125,16.591 C17.091,16.620 17.059,16.651 17.026,16.681 C16.933,16.765 16.842,16.852 16.756,16.944 C16.724,16.977 16.694,17.011 16.664,17.045 C16.576,17.142 16.493,17.243 16.413,17.348 C16.391,17.378 16.368,17.407 16.347,17.437 C16.260,17.558 16.178,17.683 16.101,17.812 C16.083,17.843 16.062,17.873 16.045,17.905 L16.001,17.980 C15.936,18.101 15.877,18.225 15.822,18.351 C15.764,18.485 15.714,18.621 15.669,18.759 C15.663,18.775 15.656,18.792 15.651,18.809 C15.605,18.952 15.568,19.098 15.536,19.244 C15.533,19.258 15.528,19.272 15.525,19.286 C15.494,19.433 15.472,19.583 15.455,19.734 C15.454,19.747 15.451,19.760 15.449,19.774 C15.432,19.938 15.424,20.104 15.424,20.271 C15.424,20.464 15.437,20.660 15.463,20.858 C15.465,20.872 15.467,20.885 15.469,20.899 C15.495,21.091 15.532,21.283 15.581,21.477 C15.588,21.505 15.595,21.532 15.603,21.559 C15.636,21.678 15.674,21.795 15.715,21.910 C15.736,21.969 15.756,22.027 15.779,22.085 C15.832,22.216 15.892,22.344 15.956,22.470 C15.975,22.505 15.990,22.542 16.008,22.578 C16.090,22.728 16.182,22.874 16.279,23.015 C16.320,23.073 16.363,23.127 16.405,23.183 C16.472,23.271 16.539,23.357 16.612,23.440 C16.661,23.496 16.710,23.551 16.762,23.605 C16.842,23.689 16.926,23.771 17.013,23.849 C17.059,23.892 17.104,23.935 17.152,23.976 C17.288,24.090 17.430,24.199 17.580,24.300 C18.350,24.816 19.276,25.119 20.271,25.119 C22.944,25.119 25.119,22.944 25.119,20.271 C25.119,18.313 23.949,16.626 22.274,15.862 ZM22.915,20.747 L20.712,20.747 L20.712,22.950 C20.712,23.194 20.514,23.391 20.271,23.391 C20.028,23.391 19.830,23.194 19.830,22.950 L19.830,20.747 L17.627,20.747 C17.384,20.747 17.186,20.550 17.186,20.306 C17.186,20.063 17.384,19.866 17.627,19.866 L19.830,19.866 L19.830,17.662 C19.830,17.419 20.028,17.222 20.271,17.222 C20.514,17.222 20.712,17.419 20.712,17.662 L20.712,19.866 L22.915,19.866 C23.158,19.866 23.356,20.063 23.356,20.306 C23.356,20.550 23.158,20.747 22.915,20.747 Z" class="cls-1"/>
</svg>
