<svg xmlns="http://www.w3.org/2000/svg" xmlns:xlink="http://www.w3.org/1999/xlink" preserveAspectRatio="xMidYMid" width="107" height="105" viewBox="0 0 107 105">
  <defs>
    <style>
      .cls-1 {
        fill: #fff;
        fill-rule: evenodd;
      }
    </style>
  </defs>
  <path d="M105.515,6.387 C102.868,6.937 99.753,8.947 98.719,9.716 C96.972,11.168 92.779,12.692 88.241,13.522 C84.765,14.156 83.894,14.893 81.789,16.673 C81.532,16.890 81.261,17.119 80.970,17.361 C80.624,17.649 80.203,17.789 79.785,17.789 C79.252,17.789 78.724,17.561 78.357,17.120 C77.702,16.331 77.810,15.160 78.598,14.505 C78.881,14.270 79.144,14.048 79.393,13.837 C81.640,11.936 83.125,10.681 87.575,9.869 C92.182,9.027 95.486,7.596 96.361,6.848 L96.451,6.776 C96.624,6.646 100.728,3.589 104.761,2.752 C105.768,2.544 106.747,3.189 106.955,4.193 C107.163,5.197 106.518,6.180 105.515,6.387 ZM85.747,7.121 C82.271,7.756 81.400,8.492 79.295,10.272 C79.038,10.489 78.767,10.719 78.476,10.960 C78.129,11.248 77.709,11.389 77.291,11.389 C76.758,11.389 76.230,11.161 75.863,10.719 C75.208,9.931 75.316,8.760 76.104,8.105 C76.387,7.869 76.650,7.647 76.899,7.436 C79.146,5.536 80.631,4.281 85.081,3.468 C89.687,2.627 92.991,1.196 93.866,0.448 C94.646,-0.218 95.817,-0.126 96.483,0.655 C97.148,1.434 97.056,2.606 96.276,3.272 C94.561,4.737 90.329,6.284 85.747,7.121 ZM36.455,56.390 C38.417,58.529 42.017,61.584 48.645,65.593 C50.295,66.590 51.296,68.232 51.466,70.215 C51.627,72.090 51.014,74.164 49.871,75.887 C54.947,79.347 60.265,81.237 65.688,81.499 C78.638,82.124 94.048,83.959 93.923,89.146 C93.899,90.154 93.301,91.033 92.253,91.794 C93.636,92.648 94.462,93.688 94.462,94.952 C94.462,100.209 79.657,102.082 65.801,102.082 C58.049,102.082 50.774,102.168 44.355,102.244 C40.979,102.283 37.938,102.319 35.287,102.336 C34.744,103.886 33.273,105.000 31.538,105.000 C30.460,105.000 29.483,104.569 28.767,103.872 C28.719,103.879 28.671,103.887 28.622,103.887 L26.236,103.887 C25.650,103.887 25.175,103.412 25.175,102.826 C25.175,102.240 25.650,101.765 26.236,101.765 L27.633,101.765 C27.587,101.524 27.561,101.276 27.561,101.022 C27.561,100.777 27.586,100.539 27.629,100.307 L26.236,100.307 C25.650,100.307 25.175,99.832 25.175,99.246 C25.175,98.660 25.650,98.185 26.236,98.185 L28.622,98.185 C28.662,98.185 28.700,98.192 28.739,98.197 C29.458,97.484 30.446,97.043 31.538,97.043 C33.264,97.043 34.729,98.146 35.279,99.684 C37.921,99.666 40.955,99.631 44.324,99.591 C50.750,99.516 58.034,99.430 65.801,99.430 C76.278,99.430 82.540,98.463 85.949,97.650 C90.768,96.502 91.811,95.211 91.811,94.952 C91.811,94.569 91.064,93.937 89.300,93.270 C83.905,95.230 74.588,96.005 65.690,96.005 C57.326,96.005 50.250,95.700 45.226,95.124 C38.497,94.353 37.181,93.357 37.181,91.898 C37.181,90.452 38.467,89.471 45.040,88.735 C49.961,88.184 57.038,87.893 65.505,87.893 C70.202,87.893 82.244,88.135 89.231,90.450 C90.569,89.900 91.204,89.395 91.274,89.072 C91.066,88.124 85.896,85.130 65.561,84.148 C59.539,83.858 53.665,81.749 48.095,77.887 C46.509,79.213 44.313,79.946 41.885,79.946 C41.885,79.946 41.885,79.946 41.884,79.946 C39.705,79.946 37.594,79.359 35.940,78.293 C31.098,75.170 24.144,69.946 18.972,60.493 C11.133,59.125 4.529,53.813 1.557,46.186 C-0.761,40.238 -0.493,33.532 2.291,27.789 C5.074,22.045 10.171,17.682 16.274,15.819 L16.468,15.771 L68.621,5.827 L78.228,30.481 L36.455,56.390 ZM65.505,90.545 C51.843,90.545 44.833,91.287 41.679,91.914 C45.169,92.623 52.883,93.353 65.690,93.353 C74.045,93.353 80.010,92.709 84.067,91.902 C79.936,91.136 73.924,90.545 65.505,90.545 ZM37.951,75.172 C38.997,75.846 40.431,76.233 41.885,76.233 C43.451,76.233 44.868,75.782 45.774,74.996 C47.056,73.883 47.894,72.006 47.768,70.532 C47.700,69.729 47.359,69.153 46.725,68.770 C40.470,64.987 35.950,61.501 33.257,58.386 L32.935,58.573 C32.551,58.757 32.164,58.929 31.775,59.091 C31.629,59.152 31.481,59.204 31.335,59.261 C31.091,59.357 30.848,59.454 30.603,59.541 C30.414,59.608 30.224,59.665 30.034,59.726 C29.828,59.793 29.623,59.863 29.416,59.924 C29.203,59.987 28.987,60.040 28.773,60.096 C28.588,60.144 28.404,60.196 28.218,60.239 C27.984,60.294 27.749,60.340 27.514,60.387 C27.345,60.421 27.177,60.458 27.008,60.488 C26.757,60.533 26.505,60.568 26.253,60.605 C26.098,60.627 25.943,60.651 25.788,60.670 C25.522,60.703 25.255,60.727 24.988,60.750 C24.844,60.762 24.702,60.776 24.558,60.786 C24.278,60.805 23.998,60.816 23.717,60.824 C23.628,60.827 23.541,60.835 23.452,60.836 C27.962,68.118 33.490,72.295 37.951,75.172 ZM66.284,10.053 L17.263,19.400 C12.114,20.999 7.985,24.551 5.631,29.408 C3.261,34.296 3.043,39.776 5.015,44.837 C7.547,51.336 13.224,55.830 19.936,56.888 L20.347,56.943 C20.404,56.951 20.461,56.955 20.518,56.962 C20.907,57.013 21.298,57.055 21.690,57.082 C21.802,57.089 21.917,57.089 22.030,57.094 C22.357,57.111 22.684,57.128 23.009,57.128 C25.868,57.127 28.637,56.501 31.241,55.268 L34.182,53.443 L34.182,53.443 L73.649,28.953 L66.284,10.053 ZM84.217,22.906 C83.961,23.123 83.690,23.352 83.400,23.593 C83.053,23.882 82.633,24.022 82.215,24.022 C81.682,24.022 81.154,23.794 80.787,23.352 C80.132,22.564 80.239,21.393 81.027,20.738 C81.309,20.503 81.572,20.281 81.821,20.071 C84.068,18.170 85.553,16.915 90.003,16.101 C94.610,15.260 97.914,13.829 98.789,13.082 C99.568,12.416 100.739,12.508 101.405,13.287 C102.071,14.067 101.979,15.239 101.200,15.905 C99.485,17.370 95.254,18.917 90.670,19.754 C87.193,20.389 86.322,21.126 84.217,22.906 Z" class="cls-1"/>
</svg>
