<svg xmlns="http://www.w3.org/2000/svg" xmlns:xlink="http://www.w3.org/1999/xlink" preserveAspectRatio="xMidYMid" width="135" height="117" viewBox="0 0 135 117">
  <defs>
    <style>
      .cls-1 {
        fill: #fff;
        fill-rule: evenodd;
      }
    </style>
  </defs>
  <path d="M134.510,39.960 C133.792,39.135 132.549,39.055 131.734,39.781 C122.617,47.907 121.161,67.477 120.930,73.823 L100.908,73.823 L93.001,49.344 C92.736,48.525 91.982,47.972 91.131,47.972 L83.569,47.972 L83.569,44.058 C86.035,43.222 87.819,40.867 87.819,38.094 L87.819,31.408 C87.819,30.309 86.939,29.418 85.853,29.418 L77.353,29.418 C76.267,29.418 75.387,30.309 75.387,31.408 L75.387,38.094 C75.387,40.866 77.171,43.222 79.636,44.058 L79.636,47.972 L72.956,47.972 L73.794,26.590 C74.097,26.246 74.349,25.891 74.568,25.580 C74.785,25.271 75.055,24.887 75.210,24.772 C75.374,24.652 75.824,24.507 76.187,24.392 C77.093,24.101 78.335,23.704 79.135,22.591 C79.931,21.484 79.923,20.224 79.917,19.211 C79.915,18.822 79.912,18.338 79.977,18.135 C80.032,17.962 80.316,17.576 80.523,17.294 C81.097,16.512 81.883,15.441 81.883,14.031 C81.883,12.622 81.097,11.551 80.523,10.769 C80.316,10.487 80.033,10.101 79.977,9.928 C79.912,9.724 79.915,9.240 79.917,8.851 C79.923,7.838 79.931,6.578 79.135,5.472 C78.335,4.359 77.093,3.961 76.187,3.671 C75.825,3.555 75.374,3.411 75.210,3.291 C75.055,3.176 74.785,2.792 74.568,2.483 C74.014,1.693 73.253,0.613 71.946,0.183 C71.584,0.064 71.197,0.003 70.795,0.003 C69.966,0.003 69.220,0.254 68.562,0.475 C68.171,0.606 67.727,0.755 67.501,0.755 C67.275,0.755 66.831,0.606 66.440,0.475 C65.781,0.254 65.035,0.003 64.206,0.003 C63.804,0.003 63.417,0.064 63.056,0.183 C61.748,0.613 60.988,1.693 60.433,2.483 C60.216,2.792 59.946,3.176 59.790,3.291 C59.627,3.411 59.177,3.555 58.814,3.671 C57.907,3.961 56.665,4.358 55.865,5.472 C55.071,6.578 55.078,7.837 55.084,8.850 C55.086,9.239 55.089,9.723 55.023,9.929 C54.967,10.102 54.684,10.487 54.477,10.770 C53.903,11.551 53.118,12.622 53.118,14.031 C53.118,15.441 53.903,16.511 54.477,17.293 C54.684,17.575 54.968,17.961 55.023,18.135 C55.089,18.339 55.086,18.823 55.084,19.212 C55.078,20.224 55.071,21.484 55.865,22.590 C56.665,23.703 57.907,24.101 58.814,24.391 C59.176,24.507 59.627,24.651 59.790,24.772 C59.946,24.886 60.216,25.270 60.433,25.579 C60.651,25.890 60.904,26.246 61.207,26.590 L62.044,47.972 L55.364,47.972 L55.364,44.058 C57.830,43.222 59.614,40.867 59.614,38.094 L59.614,31.408 C59.614,30.309 58.733,29.418 57.647,29.418 L49.148,29.418 C48.062,29.418 47.182,30.309 47.182,31.408 L47.182,38.094 C47.182,40.866 48.965,43.222 51.431,44.058 L51.431,47.972 L43.868,47.972 C43.018,47.972 42.263,48.525 41.999,49.344 L34.092,73.823 L14.070,73.823 C13.839,67.477 12.384,47.907 3.266,39.781 C2.451,39.055 1.208,39.135 0.490,39.960 C-0.227,40.785 -0.148,42.042 0.667,42.769 C10.059,51.140 10.181,75.568 10.181,75.814 L10.181,115.006 C10.181,116.106 11.062,116.996 12.147,116.996 C13.233,116.996 14.114,116.106 14.114,115.006 L14.114,104.483 L38.926,104.483 L38.926,115.006 C38.926,116.106 39.807,116.996 40.892,116.996 C41.979,116.996 42.859,116.106 42.859,115.006 L42.859,97.410 C47.837,98.158 54.335,98.786 62.591,98.968 L62.591,107.500 L53.574,113.328 C52.838,113.804 52.500,114.715 52.745,115.564 C52.990,116.413 53.759,116.996 54.633,116.996 L80.367,116.996 C81.240,116.996 82.009,116.413 82.254,115.564 C82.499,114.715 82.162,113.804 81.425,113.328 L72.409,107.500 L72.409,98.968 C80.664,98.786 87.163,98.158 92.141,97.410 L92.141,115.006 C92.141,116.106 93.021,116.996 94.107,116.996 C95.193,116.996 96.074,116.106 96.074,115.006 L96.074,104.483 L120.886,104.483 L120.886,115.006 C120.886,116.106 121.766,116.996 122.853,116.996 C123.939,116.996 124.819,116.106 124.819,115.006 L124.819,75.813 C124.819,75.568 124.941,51.140 134.333,42.769 C135.148,42.042 135.227,40.785 134.510,39.960 ZM79.320,38.094 L79.320,33.399 L83.886,33.399 L83.886,38.094 C83.886,39.368 82.862,40.405 81.603,40.405 C80.344,40.405 79.320,39.368 79.320,38.094 ZM60.000,20.596 C59.692,20.497 59.243,20.353 59.059,20.241 C59.012,20.030 59.015,19.559 59.017,19.237 C59.021,18.526 59.026,17.721 58.764,16.906 C58.510,16.112 58.045,15.478 57.635,14.920 C57.442,14.658 57.130,14.232 57.059,14.032 C57.130,13.832 57.442,13.406 57.635,13.144 C58.045,12.585 58.510,11.951 58.764,11.158 C59.026,10.342 59.021,9.537 59.017,8.826 C59.015,8.504 59.012,8.032 59.059,7.822 C59.243,7.710 59.692,7.566 60.000,7.468 C60.667,7.254 61.424,7.012 62.104,6.510 C62.779,6.014 63.235,5.365 63.638,4.792 C63.826,4.523 64.100,4.133 64.265,3.989 C64.480,4.012 64.877,4.146 65.201,4.255 C65.876,4.481 66.639,4.737 67.501,4.737 C68.363,4.737 69.127,4.481 69.801,4.255 C70.124,4.146 70.517,4.014 70.737,3.989 C70.901,4.134 71.175,4.524 71.363,4.792 C71.766,5.364 72.222,6.014 72.897,6.511 C73.578,7.012 74.334,7.254 75.001,7.468 C75.308,7.566 75.758,7.710 75.942,7.823 C75.989,8.033 75.986,8.505 75.984,8.828 C75.980,9.538 75.975,10.342 76.236,11.158 C76.491,11.951 76.956,12.585 77.366,13.144 C77.558,13.405 77.871,13.832 77.942,14.032 C77.871,14.232 77.557,14.659 77.365,14.921 C76.956,15.479 76.491,16.113 76.236,16.907 C75.975,17.721 75.980,18.526 75.984,19.236 C75.986,19.559 75.989,20.031 75.941,20.241 C75.758,20.354 75.308,20.497 75.000,20.596 C74.333,20.810 73.577,21.052 72.896,21.553 C72.222,22.050 71.766,22.699 71.363,23.272 C71.175,23.540 70.901,23.930 70.736,24.074 C70.521,24.051 70.125,23.918 69.801,23.809 C69.127,23.583 68.363,23.327 67.501,23.327 C66.639,23.327 65.876,23.583 65.201,23.809 C64.878,23.917 64.484,24.050 64.264,24.074 C64.100,23.930 63.825,23.539 63.637,23.272 C63.235,22.699 62.779,22.050 62.105,21.554 C61.423,21.052 60.667,20.809 60.000,20.596 ZM69.805,27.948 L69.020,47.972 L65.980,47.972 L65.195,27.948 C65.639,27.855 66.054,27.717 66.439,27.588 C66.830,27.456 67.274,27.307 67.500,27.307 C67.727,27.307 68.171,27.456 68.562,27.588 C68.947,27.717 69.361,27.854 69.805,27.948 ZM51.114,38.094 L51.114,33.399 L55.680,33.399 L55.680,38.094 C55.680,39.368 54.656,40.405 53.397,40.405 C52.138,40.405 51.114,39.368 51.114,38.094 ZM14.114,77.803 L32.806,77.803 L31.282,82.521 L14.114,82.521 L14.114,77.803 ZM38.926,100.502 L14.114,100.502 L14.114,86.502 L29.996,86.502 L28.322,91.684 C28.011,92.648 28.465,93.694 29.376,94.114 C29.600,94.217 32.487,95.509 38.927,96.742 L38.927,100.502 L38.926,100.502 ZM73.634,113.015 L61.366,113.015 L65.616,110.268 C66.181,109.903 66.524,109.270 66.524,108.591 L66.524,99.018 C66.847,99.019 67.171,99.021 67.500,99.021 C67.828,99.021 68.152,99.019 68.476,99.018 L68.476,108.591 C68.476,109.270 68.819,109.902 69.384,110.268 L73.634,113.015 ZM69.467,95.031 L69.467,68.911 C69.467,67.811 68.586,66.920 67.500,66.920 C66.414,66.920 65.534,67.811 65.534,68.911 L65.534,95.030 C57.601,94.960 51.216,94.470 46.192,93.837 L51.594,69.344 C51.831,68.272 51.163,67.208 50.103,66.968 C49.044,66.729 47.993,67.404 47.756,68.477 L42.286,93.277 C37.506,92.502 34.376,91.643 32.653,91.087 L45.294,51.952 L89.705,51.952 L102.347,91.086 C100.622,91.644 97.492,92.502 92.717,93.277 L87.245,68.477 C87.008,67.404 85.956,66.729 84.897,66.968 C83.837,67.208 83.170,68.272 83.407,69.344 L88.810,93.837 C83.787,94.471 77.401,94.961 69.467,95.031 ZM120.886,100.502 L96.074,100.502 L96.074,96.742 C102.514,95.509 105.401,94.217 105.624,94.114 C106.535,93.694 106.989,92.648 106.679,91.684 L105.005,86.502 L120.886,86.502 L120.886,100.502 L120.886,100.502 ZM120.886,82.521 L103.718,82.521 L102.194,77.803 L120.886,77.803 L120.886,82.521 Z" class="cls-1"/>
</svg>
