<svg xmlns="http://www.w3.org/2000/svg" xmlns:xlink="http://www.w3.org/1999/xlink" preserveAspectRatio="xMidYMid" width="130" height="93" viewBox="0 0 130 93">
  <defs>
    <style>
      .cls-1 {
        fill: #fff;
        fill-rule: evenodd;
      }
    </style>
  </defs>
  <path d="M127.894,88.836 L114.276,88.836 L114.276,70.600 C119.388,69.674 123.261,65.445 123.261,60.381 C123.261,57.818 122.225,51.437 120.550,45.596 C118.148,37.216 115.485,33.313 112.171,33.313 C108.856,33.313 106.194,37.216 103.791,45.596 C102.116,51.437 101.080,57.818 101.080,60.381 C101.080,65.445 104.953,69.674 110.065,70.600 L110.065,88.836 L96.307,88.836 L96.307,37.135 C98.915,36.264 100.799,33.823 100.799,30.954 L100.799,22.070 C100.799,20.920 99.857,19.988 98.693,19.988 L96.307,19.988 L96.307,17.490 L100.939,17.490 C102.103,17.490 103.045,16.557 103.045,15.407 C103.045,14.258 102.103,13.325 100.939,13.325 L87.462,13.325 C86.299,13.325 85.356,14.258 85.356,15.407 C85.356,16.557 86.299,17.490 87.462,17.490 L92.095,17.490 L92.095,19.988 L89.708,19.988 C88.545,19.988 87.603,20.920 87.603,22.070 L87.603,30.954 C87.603,33.823 89.487,36.264 92.095,37.135 L92.095,88.836 L84.732,88.836 L83.302,81.895 L85.216,81.895 C86.379,81.895 87.322,80.963 87.322,79.813 C87.322,78.663 86.379,77.731 85.216,77.731 L80.741,77.731 C80.732,77.731 80.723,77.731 80.713,77.731 L80.583,77.731 L80.583,73.012 L82.970,73.012 C84.133,73.012 85.076,72.080 85.076,70.930 C85.076,69.780 84.133,68.848 82.970,68.848 L80.583,68.848 L80.583,66.349 L82.970,66.349 C84.133,66.349 85.076,65.417 85.076,64.267 C85.076,63.117 84.133,62.185 82.970,62.185 L42.538,62.185 C41.375,62.185 40.432,63.117 40.432,64.267 C40.432,65.417 41.375,66.349 42.538,66.349 L44.924,66.349 L44.924,68.848 L42.538,68.848 C41.375,68.848 40.432,69.780 40.432,70.930 C40.432,72.080 41.375,73.012 42.538,73.012 L44.924,73.012 L44.924,77.731 L44.792,77.731 C44.784,77.731 44.776,77.731 44.769,77.731 L40.292,77.731 C39.128,77.731 38.186,78.663 38.186,79.813 C38.186,80.963 39.128,81.895 40.292,81.895 L42.206,81.895 L40.775,88.836 L24.428,88.836 L24.428,68.443 C33.269,67.409 40.151,59.957 40.151,50.942 C40.151,35.301 24.882,2.590 24.232,1.206 C23.887,0.470 23.142,0.000 22.322,0.000 C21.502,0.000 20.757,0.470 20.412,1.206 C19.762,2.590 4.492,35.301 4.492,50.942 C4.492,59.957 11.374,67.409 20.216,68.443 L20.216,88.836 L2.106,88.836 C0.943,88.836 -0.000,89.768 -0.000,90.918 C-0.000,92.068 0.943,93.000 2.106,93.000 L127.894,93.000 C129.057,93.000 130.000,92.068 130.000,90.918 C130.000,89.768 129.057,88.836 127.894,88.836 ZM105.292,60.381 C105.292,58.524 106.116,52.968 107.665,47.366 C109.917,39.217 111.810,37.722 112.171,37.503 C112.531,37.722 114.424,39.217 116.677,47.366 C118.225,52.968 119.050,58.524 119.050,60.381 C119.050,63.158 117.042,65.517 114.276,66.326 L114.276,62.046 C114.276,60.896 113.334,59.964 112.171,59.964 C111.007,59.964 110.065,60.896 110.065,62.046 L110.065,66.326 C107.299,65.517 105.292,63.158 105.292,60.381 ZM91.814,24.152 L96.587,24.152 L96.587,30.954 C96.587,32.255 95.517,33.313 94.201,33.313 C92.885,33.313 91.814,32.255 91.814,30.954 L91.814,24.152 ZM8.704,50.942 C8.704,39.386 18.172,16.620 22.322,7.196 C26.472,16.620 35.940,39.386 35.940,50.942 C35.940,57.658 30.940,63.240 24.428,64.244 L24.428,57.606 C24.428,57.605 24.428,57.604 24.428,57.603 L24.428,51.804 L30.550,45.751 C31.372,44.938 31.372,43.620 30.550,42.807 C29.727,41.994 28.394,41.994 27.571,42.807 L24.428,45.915 L24.428,42.058 C24.428,40.908 23.485,39.976 22.322,39.976 C21.159,39.976 20.216,40.908 20.216,42.058 L20.216,50.940 C20.216,50.941 20.216,50.942 20.216,50.943 L20.216,52.578 L17.072,49.470 C16.250,48.656 14.917,48.656 14.094,49.470 C13.272,50.283 13.272,51.601 14.094,52.414 L20.216,58.467 L20.216,64.244 C13.704,63.240 8.704,57.658 8.704,50.942 ZM49.136,66.349 L76.371,66.349 L76.371,68.848 L49.136,68.848 L49.136,66.349 ZM49.136,73.012 L76.371,73.012 L76.371,77.731 L49.136,77.731 L49.136,73.012 ZM46.504,81.895 L79.004,81.895 L80.434,88.836 L45.073,88.836 L46.504,81.895 Z" class="cls-1"/>
</svg>
