<svg xmlns="http://www.w3.org/2000/svg" xmlns:xlink="http://www.w3.org/1999/xlink" preserveAspectRatio="xMidYMid" width="16" height="16" viewBox="0 0 16 16">
  <defs>
    <style>
      .cls-1 {
        fill: #fff;
        fill-rule: evenodd;
      }
    </style>
  </defs>
  <path d="M2.053,-0.001 L13.947,-0.001 C15.076,-0.001 16.000,0.835 16.000,2.053 L16.000,13.947 C16.000,15.164 15.076,16.001 13.947,16.001 L2.053,16.001 C0.923,16.001 -0.001,15.164 -0.001,13.947 L-0.001,2.053 C-0.001,0.835 0.923,-0.001 2.053,-0.001 L2.053,-0.001 ZM11.656,1.777 C11.259,1.777 10.935,2.101 10.935,2.497 L10.935,4.222 C10.935,4.618 11.259,4.942 11.656,4.942 L13.464,4.942 C13.860,4.942 14.184,4.618 14.184,4.222 L14.184,2.497 C14.184,2.101 13.860,1.777 13.464,1.777 L11.656,1.777 L11.656,1.777 ZM14.192,6.766 L12.784,6.766 C12.917,7.201 12.989,7.662 12.989,8.139 C12.989,10.800 10.762,12.958 8.015,12.958 C5.268,12.958 3.042,10.800 3.042,8.139 C3.042,7.662 3.113,7.201 3.247,6.766 L1.777,6.766 L1.777,13.525 C1.777,13.875 2.064,14.161 2.413,14.161 L13.556,14.161 C13.906,14.161 14.192,13.875 14.192,13.525 L14.192,6.766 L14.192,6.766 ZM8.015,4.851 C6.240,4.851 4.801,6.245 4.801,7.965 C4.801,9.685 6.240,11.079 8.015,11.079 C9.790,11.079 11.229,9.685 11.229,7.965 C11.229,6.245 9.790,4.851 8.015,4.851 Z" class="cls-1"/>
</svg>
