<svg xmlns="http://www.w3.org/2000/svg" xmlns:xlink="http://www.w3.org/1999/xlink" preserveAspectRatio="xMidYMid" width="49" height="48.969" viewBox="0 0 49 48.969">
  <defs>
    <style>
      .cls-1 {
        fill: #fff;
        fill-rule: evenodd;
      }
    </style>
  </defs>
  <path d="M45.782,33.524 L45.782,44.006 C45.782,46.744 43.589,48.972 40.896,48.972 L35.330,48.972 C34.649,48.972 34.098,48.413 34.098,47.721 C34.098,47.029 34.649,46.469 35.330,46.469 L40.896,46.469 C42.238,46.469 43.329,45.360 43.329,43.996 L43.329,32.740 C43.329,32.221 43.649,31.753 44.130,31.570 C45.581,31.030 46.553,29.616 46.553,28.059 L46.553,20.090 C46.553,18.024 44.901,16.345 42.868,16.345 L37.602,16.345 C36.922,16.345 36.371,15.785 36.371,15.093 C36.371,14.401 36.922,13.842 37.602,13.842 L42.868,13.842 C46.252,13.842 49.005,16.630 49.005,20.070 L49.005,28.038 C49.005,30.338 47.744,32.445 45.782,33.524 ZM38.714,12.570 C35.300,12.570 32.527,9.751 32.527,6.280 C32.527,2.810 35.300,-0.009 38.714,-0.009 C42.128,-0.009 44.901,2.810 44.901,6.280 C44.901,9.751 42.128,12.570 38.714,12.570 ZM38.714,2.484 C36.651,2.484 34.979,4.184 34.979,6.280 C34.979,8.377 36.651,10.076 38.714,10.076 C40.776,10.076 42.448,8.377 42.448,6.280 C42.448,4.184 40.776,2.484 38.714,2.484 ZM24.498,12.570 C21.084,12.570 18.310,9.751 18.310,6.280 C18.310,2.810 21.084,-0.009 24.498,-0.009 C27.911,-0.009 30.685,2.810 30.685,6.280 C30.685,9.751 27.911,12.570 24.498,12.570 ZM24.498,2.484 C22.435,2.484 20.763,4.194 20.763,6.280 C20.763,8.377 22.435,10.076 24.498,10.076 C26.560,10.076 28.232,8.377 28.232,6.280 C28.232,4.184 26.560,2.484 24.498,2.484 ZM10.281,12.570 C6.868,12.570 4.094,9.751 4.094,6.280 C4.094,2.810 6.868,-0.009 10.281,-0.009 C13.695,-0.009 16.468,2.810 16.468,6.280 C16.468,9.751 13.685,12.570 10.281,12.570 ZM10.281,2.484 C8.219,2.484 6.547,4.194 6.547,6.280 C6.547,8.377 8.219,10.076 10.281,10.076 C12.344,10.076 14.016,8.377 14.016,6.280 C14.016,4.184 12.344,2.484 10.281,2.484 ZM11.383,13.821 C12.063,13.821 12.614,14.381 12.614,15.073 C12.614,15.765 12.063,16.325 11.383,16.325 L6.137,16.325 C4.104,16.325 2.453,18.004 2.453,20.070 L2.453,28.038 C2.453,29.606 3.424,31.010 4.865,31.550 C5.346,31.733 5.666,32.201 5.666,32.720 L5.666,43.965 C5.666,45.329 6.757,46.438 8.099,46.438 L13.665,46.438 C14.346,46.438 14.897,46.998 14.897,47.690 C14.897,48.382 14.346,48.942 13.665,48.942 L8.099,48.942 C5.406,48.942 3.213,46.713 3.213,43.965 L3.213,33.514 C1.251,32.435 -0.010,30.328 -0.010,28.028 L-0.010,20.060 C-0.010,16.620 2.743,13.821 6.127,13.821 L11.383,13.821 ZM13.595,20.070 C13.595,16.630 16.348,13.831 19.732,13.831 L29.253,13.831 C32.637,13.831 35.390,16.630 35.390,20.070 L35.390,28.038 C35.390,30.338 34.128,32.445 32.166,33.524 L32.166,43.976 C32.166,46.713 29.974,48.942 27.281,48.942 L21.714,48.942 C19.021,48.942 16.829,46.713 16.819,43.976 L16.819,33.524 C14.857,32.445 13.595,30.338 13.595,28.038 L13.595,20.070 ZM16.058,28.038 C16.058,29.595 17.029,31.010 18.501,31.550 C18.981,31.733 19.302,32.201 19.302,32.720 L19.302,43.976 C19.302,45.339 20.393,46.449 21.734,46.449 L27.301,46.449 C28.642,46.449 29.733,45.339 29.733,43.976 L29.733,32.720 C29.733,32.201 30.054,31.733 30.534,31.550 C31.976,31.010 32.947,29.595 32.947,28.038 L32.947,20.070 C32.947,18.004 31.295,16.325 29.263,16.325 L19.742,16.325 C17.710,16.325 16.058,18.004 16.058,20.070 L16.058,28.038 Z" class="cls-1"/>
</svg>
