<svg xmlns="http://www.w3.org/2000/svg" xmlns:xlink="http://www.w3.org/1999/xlink" preserveAspectRatio="xMidYMid" width="22" height="48.031" viewBox="0 0 22 48.031">
  <defs>
    <style>
      .cls-1 {
        fill: #fff;
        fill-rule: evenodd;
      }
    </style>
  </defs>
  <path d="M18.729,32.878 L18.729,43.163 C18.729,45.842 16.522,48.020 13.807,48.020 L8.180,48.020 C5.465,48.020 3.258,45.842 3.258,43.163 L3.258,32.888 C1.279,31.838 -0.003,29.777 -0.003,27.520 L-0.003,19.698 C-0.003,16.332 2.771,13.594 6.181,13.594 L6.181,13.584 L15.806,13.584 C19.216,13.584 21.990,16.322 21.990,19.688 L21.990,27.510 C21.990,29.767 20.708,31.828 18.729,32.878 ZM19.555,19.688 C19.555,17.657 17.874,15.999 15.826,15.989 L6.201,15.989 C4.133,15.989 2.453,17.647 2.453,19.688 L2.453,27.520 C2.453,29.060 3.437,30.454 4.909,30.984 C5.386,31.161 5.704,31.612 5.704,32.112 L5.704,43.153 C5.704,44.507 6.818,45.606 8.190,45.606 L13.817,45.606 C15.190,45.606 16.303,44.507 16.303,43.153 L16.303,32.103 C16.303,31.602 16.621,31.151 17.099,30.974 C18.570,30.444 19.555,29.051 19.555,27.510 L19.555,19.688 ZM10.994,12.309 C7.553,12.309 4.759,9.551 4.759,6.155 C4.759,2.760 7.553,0.002 10.994,0.002 C14.434,0.002 17.228,2.760 17.228,6.155 C17.228,9.551 14.434,12.309 10.994,12.309 ZM10.994,2.407 C8.896,2.407 7.195,4.085 7.195,6.155 C7.195,8.226 8.896,9.904 10.994,9.904 C13.092,9.904 14.792,8.226 14.792,6.155 C14.792,4.085 13.092,2.407 10.994,2.407 Z" class="cls-1"/>
</svg>
