<svg xmlns="http://www.w3.org/2000/svg" xmlns:xlink="http://www.w3.org/1999/xlink" preserveAspectRatio="xMidYMid" width="36" height="49" viewBox="0 0 36 49">
  <defs>
    <style>
      .cls-1 {
        fill: #fff;
        fill-rule: evenodd;
      }
    </style>
  </defs>
  <path d="M32.711,33.544 L32.711,44.025 C32.711,46.759 30.489,48.981 27.757,48.981 L22.093,48.981 C21.413,48.981 20.862,48.430 20.862,47.750 C20.862,47.069 21.413,46.518 22.093,46.518 L27.757,46.518 C29.138,46.518 30.259,45.397 30.259,44.016 L30.259,32.763 C30.259,32.252 30.579,31.792 31.060,31.612 C32.541,31.071 33.532,29.649 33.532,28.078 L33.532,20.089 C33.532,18.006 31.840,16.315 29.759,16.315 L24.405,16.315 C23.724,16.315 23.174,15.764 23.174,15.083 C23.174,14.402 23.724,13.852 24.405,13.852 L29.759,13.852 C33.201,13.872 35.993,16.665 35.993,20.089 L35.993,28.068 C35.993,30.370 34.702,32.473 32.711,33.544 ZM25.546,12.560 C22.083,12.560 19.271,9.747 19.271,6.283 C19.271,2.819 22.083,0.006 25.546,0.006 C29.008,0.006 31.820,2.819 31.820,6.283 C31.820,9.747 29.008,12.560 25.546,12.560 ZM25.546,2.459 C23.434,2.459 21.723,4.171 21.723,6.283 C21.723,8.396 23.434,10.108 25.546,10.108 C27.657,10.108 29.369,8.396 29.369,6.283 C29.369,4.171 27.657,2.459 25.546,2.459 ZM11.075,12.560 C7.613,12.560 4.801,9.747 4.801,6.283 C4.801,2.819 7.613,0.006 11.075,0.006 C14.538,0.006 17.350,2.819 17.350,6.283 C17.350,9.747 14.538,12.560 11.075,12.560 ZM11.075,2.459 C8.964,2.459 7.253,4.171 7.253,6.283 C7.253,8.396 8.964,10.108 11.075,10.108 C13.187,10.108 14.898,8.396 14.898,6.283 C14.898,4.171 13.187,2.459 11.075,2.459 ZM15.919,13.872 C19.351,13.872 22.133,16.665 22.143,20.089 L22.143,28.068 C22.143,30.370 20.852,32.473 18.861,33.544 L18.861,44.036 C18.861,46.769 16.639,48.991 13.907,48.991 L8.243,48.991 C5.511,48.991 3.290,46.769 3.290,44.036 L3.290,33.554 C1.298,32.483 0.007,30.380 0.007,28.078 L0.007,20.099 C0.007,16.665 2.799,13.872 6.232,13.872 L15.919,13.872 ZM2.469,20.089 L2.469,28.078 C2.469,29.649 3.460,31.071 4.941,31.612 C5.421,31.792 5.742,32.252 5.742,32.763 L5.742,44.025 C5.742,45.407 6.862,46.528 8.243,46.528 L13.907,46.528 C15.288,46.528 16.409,45.407 16.409,44.025 L16.409,32.753 C16.409,32.242 16.729,31.782 17.210,31.602 C18.691,31.061 19.682,29.639 19.682,28.068 L19.702,28.068 L19.702,20.089 C19.702,18.006 18.010,16.315 15.929,16.315 L6.242,16.315 C4.160,16.315 2.469,18.006 2.469,20.089 Z" class="cls-1"/>
</svg>
