<svg xmlns="http://www.w3.org/2000/svg" xmlns:xlink="http://www.w3.org/1999/xlink" preserveAspectRatio="xMidYMid" width="14.031" height="14" viewBox="0 0 14.031 14">
  <defs>
    <style>
      .cls-1 {
        fill: #fff;
        fill-rule: evenodd;
      }
    </style>
  </defs>
  <path d="M13.537,10.124 C12.949,9.532 12.362,8.948 11.792,8.384 C11.482,8.078 11.120,7.916 10.741,7.916 C10.362,7.916 10.000,8.078 9.694,8.381 L9.615,8.460 C9.306,8.766 8.985,9.084 8.675,9.402 C8.611,9.370 8.548,9.338 8.487,9.306 C8.345,9.237 8.209,9.170 8.090,9.095 C7.159,8.512 6.302,7.734 5.474,6.714 C5.072,6.220 4.791,5.780 4.595,5.335 C4.869,5.069 5.139,4.798 5.402,4.532 C5.468,4.465 5.538,4.396 5.605,4.329 C6.250,3.682 6.247,2.844 5.602,2.194 C5.405,1.994 5.202,1.795 5.008,1.601 C4.922,1.514 4.835,1.428 4.748,1.341 C4.655,1.249 4.566,1.159 4.473,1.066 C4.276,0.867 4.071,0.662 3.865,0.462 C3.556,0.159 3.191,-0.000 2.815,-0.000 C2.439,-0.000 2.074,0.159 1.767,0.462 C1.620,0.610 1.469,0.757 1.327,0.902 C1.119,1.113 0.902,1.329 0.685,1.538 C0.280,1.922 0.054,2.407 0.011,2.983 C-0.056,3.887 0.196,4.705 0.422,5.318 C0.937,6.702 1.724,8.014 2.829,9.329 C4.207,10.965 5.865,12.260 7.758,13.182 C8.799,13.688 9.694,13.945 10.565,13.994 C10.628,13.997 10.692,14.000 10.753,14.000 C11.488,14.000 12.093,13.740 12.550,13.231 C12.747,13.012 12.958,12.806 13.181,12.590 C13.294,12.480 13.409,12.367 13.525,12.251 C14.173,11.601 14.176,10.769 13.537,10.124 ZM12.975,11.702 C12.865,11.812 12.752,11.922 12.642,12.032 C12.420,12.249 12.188,12.474 11.974,12.714 C11.635,13.092 11.207,13.251 10.614,13.220 C9.847,13.176 9.051,12.945 8.105,12.486 C6.311,11.613 4.736,10.384 3.431,8.835 C2.384,7.590 1.640,6.355 1.157,5.055 C0.859,4.257 0.749,3.639 0.792,3.052 C0.821,2.673 0.963,2.364 1.226,2.116 C1.449,1.893 1.669,1.670 1.883,1.457 C2.025,1.315 2.170,1.168 2.314,1.023 C2.424,0.913 2.601,0.783 2.815,0.783 C3.029,0.783 3.205,0.913 3.318,1.023 C3.518,1.220 3.723,1.425 3.917,1.621 C4.010,1.714 4.100,1.806 4.192,1.896 C4.279,1.983 4.366,2.069 4.453,2.156 C4.647,2.350 4.846,2.549 5.043,2.746 C5.390,3.095 5.393,3.434 5.046,3.780 C4.979,3.850 4.910,3.916 4.843,3.986 C4.563,4.269 4.270,4.564 3.978,4.844 C3.833,4.983 3.692,5.220 3.833,5.561 C4.059,6.101 4.386,6.627 4.861,7.211 C5.743,8.295 6.664,9.130 7.668,9.760 C7.824,9.858 7.983,9.936 8.137,10.012 C8.229,10.055 8.313,10.098 8.397,10.144 C8.501,10.202 8.606,10.228 8.710,10.228 L8.710,10.228 C8.875,10.228 9.028,10.156 9.164,10.017 C9.491,9.679 9.833,9.344 10.159,9.017 L10.238,8.939 C10.348,8.829 10.524,8.699 10.735,8.699 C10.947,8.699 11.123,8.829 11.236,8.939 C11.803,9.503 12.391,10.087 12.975,10.676 C13.314,11.009 13.311,11.364 12.975,11.702 Z" class="cls-1"/>
</svg>
