<svg xmlns="http://www.w3.org/2000/svg" xmlns:xlink="http://www.w3.org/1999/xlink" preserveAspectRatio="xMidYMid" width="11" height="13" viewBox="0 0 11 13">
  <defs>
    <style>
      .cls-1 {
        fill: #fff;
        fill-rule: evenodd;
      }
    </style>
  </defs>
  <path d="M10.986,9.016 C10.986,8.134 10.731,7.432 10.222,6.911 C9.713,6.390 9.033,6.047 8.187,5.877 L8.187,5.809 C8.776,5.574 9.238,5.211 9.571,4.716 C9.907,4.222 10.074,3.659 10.074,3.025 C10.074,2.477 9.952,1.994 9.709,1.575 C9.467,1.158 9.099,0.821 8.609,0.571 C8.156,0.339 7.669,0.187 7.149,0.116 C6.631,0.041 5.866,0.006 4.860,0.006 L0.014,0.006 L0.014,12.994 L5.504,12.994 C6.458,12.994 7.240,12.913 7.857,12.749 C8.477,12.586 9.043,12.314 9.558,11.931 C9.996,11.609 10.341,11.207 10.599,10.719 C10.858,10.230 10.986,9.662 10.986,9.016 L10.986,9.016 ZM6.574,3.680 C6.574,3.469 6.517,3.254 6.404,3.034 C6.291,2.814 6.115,2.653 5.873,2.555 C5.646,2.459 5.379,2.409 5.068,2.399 C4.757,2.391 4.294,2.387 3.681,2.387 L3.441,2.387 L3.441,5.136 L3.875,5.136 C4.464,5.136 4.879,5.130 5.115,5.118 C5.350,5.106 5.596,5.046 5.848,4.937 C6.121,4.814 6.313,4.645 6.416,4.430 C6.520,4.213 6.574,3.962 6.574,3.680 L6.574,3.680 ZM7.438,8.956 C7.438,8.554 7.354,8.241 7.181,8.015 C7.008,7.786 6.750,7.616 6.407,7.501 C6.199,7.422 5.910,7.380 5.546,7.372 C5.181,7.363 4.690,7.360 4.077,7.360 L3.441,7.360 L3.441,10.612 L3.627,10.612 C4.523,10.612 5.143,10.606 5.486,10.594 C5.829,10.582 6.181,10.505 6.536,10.359 C6.851,10.230 7.077,10.043 7.222,9.796 C7.367,9.549 7.438,9.269 7.438,8.956 Z" class="cls-1"/>
</svg>
