<svg xmlns="http://www.w3.org/2000/svg" xmlns:xlink="http://www.w3.org/1999/xlink" preserveAspectRatio="xMidYMid" width="47" height="46.968" viewBox="0 0 47 46.968">
  <defs>
    <style>
      .cls-1 {
        fill: #fff;
        fill-rule: evenodd;
      }
    </style>
  </defs>
  <path d="M47.016,43.022 L43.100,46.972 L32.414,36.190 C29.004,38.885 24.723,40.508 20.065,40.508 C8.992,40.508 -0.015,31.420 -0.015,20.249 C-0.015,9.076 8.992,-0.012 20.065,-0.012 C31.138,-0.012 40.145,9.076 40.145,20.249 C40.145,24.708 38.692,28.822 36.263,32.172 L47.016,43.022 ZM20.065,5.576 C12.049,5.576 5.523,12.158 5.523,20.249 C5.523,28.338 12.049,34.921 20.065,34.921 C28.081,34.921 34.607,28.338 34.607,20.249 C34.607,12.158 28.081,5.576 20.065,5.576 ZM23.000,27.937 L17.000,27.937 L17.000,22.937 L12.000,22.937 L12.000,16.937 L17.000,16.937 L17.000,11.937 L23.000,11.937 L23.000,16.937 L28.000,16.937 L28.000,22.937 L23.000,22.937 L23.000,27.937 Z" class="cls-1"/>
</svg>
